<?xml version="1.0" encoding="UTF-8" standalone="no"?>
<!DOCTYPE svg PUBLIC "-//W3C//DTD SVG 1.1//EN"
 "http://www.w3.org/Graphics/SVG/1.1/DTD/svg11.dtd">
<!-- Generated by graphviz version 2.42.3 (20191010.1750)
 -->
<!-- Title: snakemake_dag Pages: 1 -->
<svg width="1358pt" height="553pt"
 viewBox="0.00 0.00 1358.00 553.00" xmlns="http://www.w3.org/2000/svg" xmlns:xlink="http://www.w3.org/1999/xlink">
<g id="graph0" class="graph" transform="scale(1 1) rotate(0) translate(4 549)">
<title>snakemake_dag</title>
<polygon fill="white" stroke="transparent" points="-4,4 -4,-549 1354,-549 1354,4 -4,4"/>
<!-- 0 -->
<g id="node1" class="node">
<title>0</title>
<path fill="none" stroke="#56c9d8" stroke-width="2" d="M689,-36C689,-36 659,-36 659,-36 653,-36 647,-30 647,-24 647,-24 647,-12 647,-12 647,-6 653,0 659,0 659,0 689,0 689,0 695,0 701,-6 701,-12 701,-12 701,-24 701,-24 701,-30 695,-36 689,-36"/>
<text text-anchor="middle" x="674" y="-15.5" font-family="sans" font-size="10.00">all</text>
</g>
<!-- 1 -->
<g id="node2" class="node">
<title>1</title>
<path fill="none" stroke="#56d873" stroke-width="2" d="M689,-108C689,-108 659,-108 659,-108 653,-108 647,-102 647,-96 647,-96 647,-84 647,-84 647,-78 653,-72 659,-72 659,-72 689,-72 689,-72 695,-72 701,-78 701,-84 701,-84 701,-96 701,-96 701,-102 695,-108 689,-108"/>
<text text-anchor="middle" x="674" y="-87.5" font-family="sans" font-size="10.00">gffread</text>
</g>
<!-- 1&#45;&gt;0 -->
<g id="edge1" class="edge">
<title>1&#45;&gt;0</title>
<path fill="none" stroke="grey" stroke-width="2" d="M674,-71.7C674,-63.98 674,-54.71 674,-46.11"/>
<polygon fill="grey" stroke="grey" stroke-width="2" points="677.5,-46.1 674,-36.1 670.5,-46.1 677.5,-46.1"/>
</g>
<!-- 2 -->
<g id="node3" class="node">
<title>2</title>
<path fill="none" stroke="#56d8a9" stroke-width="2" d="M705.5,-180C705.5,-180 642.5,-180 642.5,-180 636.5,-180 630.5,-174 630.5,-168 630.5,-168 630.5,-156 630.5,-156 630.5,-150 636.5,-144 642.5,-144 642.5,-144 705.5,-144 705.5,-144 711.5,-144 717.5,-150 717.5,-156 717.5,-156 717.5,-168 717.5,-168 717.5,-174 711.5,-180 705.5,-180"/>
<text text-anchor="middle" x="674" y="-159.5" font-family="sans" font-size="10.00">stringtieMerge</text>
</g>
<!-- 2&#45;&gt;1 -->
<g id="edge2" class="edge">
<title>2&#45;&gt;1</title>
<path fill="none" stroke="grey" stroke-width="2" d="M674,-143.7C674,-135.98 674,-126.71 674,-118.11"/>
<polygon fill="grey" stroke="grey" stroke-width="2" points="677.5,-118.1 674,-108.1 670.5,-118.1 677.5,-118.1"/>
</g>
<!-- 3 -->
<g id="node4" class="node">
<title>3</title>
<path fill="none" stroke="#70d856" stroke-width="2" d="M705,-252C705,-252 643,-252 643,-252 637,-252 631,-246 631,-240 631,-240 631,-228 631,-228 631,-222 637,-216 643,-216 643,-216 705,-216 705,-216 711,-216 717,-222 717,-228 717,-228 717,-240 717,-240 717,-246 711,-252 705,-252"/>
<text text-anchor="middle" x="674" y="-231.5" font-family="sans" font-size="10.00">create_GTFlist</text>
</g>
<!-- 3&#45;&gt;2 -->
<g id="edge3" class="edge">
<title>3&#45;&gt;2</title>
<path fill="none" stroke="grey" stroke-width="2" d="M674,-215.7C674,-207.98 674,-198.71 674,-190.11"/>
<polygon fill="grey" stroke="grey" stroke-width="2" points="677.5,-190.1 674,-180.1 670.5,-190.1 677.5,-190.1"/>
</g>
<!-- 4 -->
<g id="node5" class="node">
<title>4</title>
<path fill="none" stroke="#d8cb56" stroke-width="2" d="M303.5,-324C303.5,-324 264.5,-324 264.5,-324 258.5,-324 252.5,-318 252.5,-312 252.5,-312 252.5,-300 252.5,-300 252.5,-294 258.5,-288 264.5,-288 264.5,-288 303.5,-288 303.5,-288 309.5,-288 315.5,-294 315.5,-300 315.5,-300 315.5,-312 315.5,-312 315.5,-318 309.5,-324 303.5,-324"/>
<text text-anchor="middle" x="284" y="-303.5" font-family="sans" font-size="10.00">stringtie1</text>
</g>
<!-- 4&#45;&gt;3 -->
<g id="edge4" class="edge">
<title>4&#45;&gt;3</title>
<path fill="none" stroke="grey" stroke-width="2" d="M315.76,-294.14C323.01,-291.9 330.73,-289.71 338,-288 436.64,-264.83 553.98,-248.91 620.65,-240.93"/>
<polygon fill="grey" stroke="grey" stroke-width="2" points="621.39,-244.37 630.91,-239.72 620.57,-237.42 621.39,-244.37"/>
</g>
<!-- 5 -->
<g id="node6" class="node">
<title>5</title>
<path fill="none" stroke="#d8cb56" stroke-width="2" d="M398.5,-324C398.5,-324 359.5,-324 359.5,-324 353.5,-324 347.5,-318 347.5,-312 347.5,-312 347.5,-300 347.5,-300 347.5,-294 353.5,-288 359.5,-288 359.5,-288 398.5,-288 398.5,-288 404.5,-288 410.5,-294 410.5,-300 410.5,-300 410.5,-312 410.5,-312 410.5,-318 404.5,-324 398.5,-324"/>
<text text-anchor="middle" x="379" y="-303.5" font-family="sans" font-size="10.00">stringtie1</text>
</g>
<!-- 5&#45;&gt;3 -->
<g id="edge5" class="edge">
<title>5&#45;&gt;3</title>
<path fill="none" stroke="grey" stroke-width="2" d="M410.66,-292.88C415.75,-291.13 420.99,-289.43 426,-288 492.33,-269.01 570.38,-253.41 620.95,-244.17"/>
<polygon fill="grey" stroke="grey" stroke-width="2" points="621.78,-247.57 631,-242.35 620.53,-240.68 621.78,-247.57"/>
</g>
<!-- 6 -->
<g id="node7" class="node">
<title>6</title>
<path fill="none" stroke="#d8cb56" stroke-width="2" d="M486.5,-324C486.5,-324 447.5,-324 447.5,-324 441.5,-324 435.5,-318 435.5,-312 435.5,-312 435.5,-300 435.5,-300 435.5,-294 441.5,-288 447.5,-288 447.5,-288 486.5,-288 486.5,-288 492.5,-288 498.5,-294 498.5,-300 498.5,-300 498.5,-312 498.5,-312 498.5,-318 492.5,-324 486.5,-324"/>
<text text-anchor="middle" x="467" y="-303.5" font-family="sans" font-size="10.00">stringtie1</text>
</g>
<!-- 6&#45;&gt;3 -->
<g id="edge6" class="edge">
<title>6&#45;&gt;3</title>
<path fill="none" stroke="grey" stroke-width="2" d="M498.85,-292.15C502.59,-290.71 506.37,-289.3 510,-288 546.88,-274.77 588.94,-261.2 621.24,-251.11"/>
<polygon fill="grey" stroke="grey" stroke-width="2" points="622.42,-254.41 630.93,-248.09 620.34,-247.72 622.42,-254.41"/>
</g>
<!-- 7 -->
<g id="node8" class="node">
<title>7</title>
<path fill="none" stroke="#d8cb56" stroke-width="2" d="M570.5,-324C570.5,-324 531.5,-324 531.5,-324 525.5,-324 519.5,-318 519.5,-312 519.5,-312 519.5,-300 519.5,-300 519.5,-294 525.5,-288 531.5,-288 531.5,-288 570.5,-288 570.5,-288 576.5,-288 582.5,-294 582.5,-300 582.5,-300 582.5,-312 582.5,-312 582.5,-318 576.5,-324 570.5,-324"/>
<text text-anchor="middle" x="551" y="-303.5" font-family="sans" font-size="10.00">stringtie1</text>
</g>
<!-- 7&#45;&gt;3 -->
<g id="edge7" class="edge">
<title>7&#45;&gt;3</title>
<path fill="none" stroke="grey" stroke-width="2" d="M581.09,-287.88C597.32,-278.64 617.54,-267.13 634.97,-257.21"/>
<polygon fill="grey" stroke="grey" stroke-width="2" points="636.84,-260.18 643.8,-252.19 633.37,-254.09 636.84,-260.18"/>
</g>
<!-- 8 -->
<g id="node9" class="node">
<title>8</title>
<path fill="none" stroke="#d8cb56" stroke-width="2" d="M653.5,-324C653.5,-324 614.5,-324 614.5,-324 608.5,-324 602.5,-318 602.5,-312 602.5,-312 602.5,-300 602.5,-300 602.5,-294 608.5,-288 614.5,-288 614.5,-288 653.5,-288 653.5,-288 659.5,-288 665.5,-294 665.5,-300 665.5,-300 665.5,-312 665.5,-312 665.5,-318 659.5,-324 653.5,-324"/>
<text text-anchor="middle" x="634" y="-303.5" font-family="sans" font-size="10.00">stringtie1</text>
</g>
<!-- 8&#45;&gt;3 -->
<g id="edge8" class="edge">
<title>8&#45;&gt;3</title>
<path fill="none" stroke="grey" stroke-width="2" d="M643.89,-287.7C648.49,-279.64 654.06,-269.89 659.15,-260.98"/>
<polygon fill="grey" stroke="grey" stroke-width="2" points="662.3,-262.52 664.23,-252.1 656.23,-259.05 662.3,-262.52"/>
</g>
<!-- 9 -->
<g id="node10" class="node">
<title>9</title>
<path fill="none" stroke="#d8cb56" stroke-width="2" d="M736.5,-324C736.5,-324 697.5,-324 697.5,-324 691.5,-324 685.5,-318 685.5,-312 685.5,-312 685.5,-300 685.5,-300 685.5,-294 691.5,-288 697.5,-288 697.5,-288 736.5,-288 736.5,-288 742.5,-288 748.5,-294 748.5,-300 748.5,-300 748.5,-312 748.5,-312 748.5,-318 742.5,-324 736.5,-324"/>
<text text-anchor="middle" x="717" y="-303.5" font-family="sans" font-size="10.00">stringtie1</text>
</g>
<!-- 9&#45;&gt;3 -->
<g id="edge9" class="edge">
<title>9&#45;&gt;3</title>
<path fill="none" stroke="grey" stroke-width="2" d="M706.37,-287.7C701.37,-279.56 695.31,-269.69 689.79,-260.7"/>
<polygon fill="grey" stroke="grey" stroke-width="2" points="692.72,-258.79 684.51,-252.1 686.76,-262.46 692.72,-258.79"/>
</g>
<!-- 10 -->
<g id="node11" class="node">
<title>10</title>
<path fill="none" stroke="#d8cb56" stroke-width="2" d="M821.5,-324C821.5,-324 782.5,-324 782.5,-324 776.5,-324 770.5,-318 770.5,-312 770.5,-312 770.5,-300 770.5,-300 770.5,-294 776.5,-288 782.5,-288 782.5,-288 821.5,-288 821.5,-288 827.5,-288 833.5,-294 833.5,-300 833.5,-300 833.5,-312 833.5,-312 833.5,-318 827.5,-324 821.5,-324"/>
<text text-anchor="middle" x="802" y="-303.5" font-family="sans" font-size="10.00">stringtie1</text>
</g>
<!-- 10&#45;&gt;3 -->
<g id="edge10" class="edge">
<title>10&#45;&gt;3</title>
<path fill="none" stroke="grey" stroke-width="2" d="M770.69,-287.88C753.8,-278.64 732.75,-267.13 714.62,-257.21"/>
<polygon fill="grey" stroke="grey" stroke-width="2" points="715.89,-253.92 705.43,-252.19 712.53,-260.06 715.89,-253.92"/>
</g>
<!-- 11 -->
<g id="node12" class="node">
<title>11</title>
<path fill="none" stroke="#d8cb56" stroke-width="2" d="M908.5,-324C908.5,-324 869.5,-324 869.5,-324 863.5,-324 857.5,-318 857.5,-312 857.5,-312 857.5,-300 857.5,-300 857.5,-294 863.5,-288 869.5,-288 869.5,-288 908.5,-288 908.5,-288 914.5,-288 920.5,-294 920.5,-300 920.5,-300 920.5,-312 920.5,-312 920.5,-318 914.5,-324 908.5,-324"/>
<text text-anchor="middle" x="889" y="-303.5" font-family="sans" font-size="10.00">stringtie1</text>
</g>
<!-- 11&#45;&gt;3 -->
<g id="edge11" class="edge">
<title>11&#45;&gt;3</title>
<path fill="none" stroke="grey" stroke-width="2" d="M857.4,-293.09C852.59,-291.34 847.67,-289.6 843,-288 804.33,-274.8 760.27,-261.02 726.84,-250.83"/>
<polygon fill="grey" stroke="grey" stroke-width="2" points="727.85,-247.47 717.26,-247.91 725.81,-254.17 727.85,-247.47"/>
</g>
<!-- 12 -->
<g id="node13" class="node">
<title>12</title>
<path fill="none" stroke="#d8cb56" stroke-width="2" d="M995.5,-324C995.5,-324 956.5,-324 956.5,-324 950.5,-324 944.5,-318 944.5,-312 944.5,-312 944.5,-300 944.5,-300 944.5,-294 950.5,-288 956.5,-288 956.5,-288 995.5,-288 995.5,-288 1001.5,-288 1007.5,-294 1007.5,-300 1007.5,-300 1007.5,-312 1007.5,-312 1007.5,-318 1001.5,-324 995.5,-324"/>
<text text-anchor="middle" x="976" y="-303.5" font-family="sans" font-size="10.00">stringtie1</text>
</g>
<!-- 12&#45;&gt;3 -->
<g id="edge12" class="edge">
<title>12&#45;&gt;3</title>
<path fill="none" stroke="grey" stroke-width="2" d="M944.03,-292.49C939.36,-290.87 934.58,-289.31 930,-288 860.87,-268.19 779.25,-252.6 727.08,-243.59"/>
<polygon fill="grey" stroke="grey" stroke-width="2" points="727.5,-240.12 717.06,-241.88 726.32,-247.02 727.5,-240.12"/>
</g>
<!-- 13 -->
<g id="node14" class="node">
<title>13</title>
<path fill="none" stroke="#d8cb56" stroke-width="2" d="M1083.5,-324C1083.5,-324 1044.5,-324 1044.5,-324 1038.5,-324 1032.5,-318 1032.5,-312 1032.5,-312 1032.5,-300 1032.5,-300 1032.5,-294 1038.5,-288 1044.5,-288 1044.5,-288 1083.5,-288 1083.5,-288 1089.5,-288 1095.5,-294 1095.5,-300 1095.5,-300 1095.5,-312 1095.5,-312 1095.5,-318 1089.5,-324 1083.5,-324"/>
<text text-anchor="middle" x="1064" y="-303.5" font-family="sans" font-size="10.00">stringtie1</text>
</g>
<!-- 13&#45;&gt;3 -->
<g id="edge13" class="edge">
<title>13&#45;&gt;3</title>
<path fill="none" stroke="grey" stroke-width="2" d="M1032.41,-292.63C1027.31,-290.91 1022.04,-289.29 1017,-288 916.08,-262.21 795.04,-247.08 727.08,-239.98"/>
<polygon fill="grey" stroke="grey" stroke-width="2" points="727.35,-236.49 717.05,-238.95 726.64,-243.45 727.35,-236.49"/>
</g>
<!-- 14 -->
<g id="node15" class="node">
<title>14</title>
<path fill="none" stroke="#afd856" stroke-width="2" d="M103,-396C103,-396 57,-396 57,-396 51,-396 45,-390 45,-384 45,-384 45,-372 45,-372 45,-366 51,-360 57,-360 57,-360 103,-360 103,-360 109,-360 115,-366 115,-372 115,-372 115,-384 115,-384 115,-390 109,-396 103,-396"/>
<text text-anchor="middle" x="80" y="-375.5" font-family="sans" font-size="10.00">samtoBam</text>
</g>
<!-- 14&#45;&gt;4 -->
<g id="edge14" class="edge">
<title>14&#45;&gt;4</title>
<path fill="none" stroke="grey" stroke-width="2" d="M115.07,-364.97C150.52,-352.8 205.28,-334.01 242.79,-321.14"/>
<polygon fill="grey" stroke="grey" stroke-width="2" points="244.08,-324.4 252.4,-317.84 241.81,-317.78 244.08,-324.4"/>
</g>
<!-- 15 -->
<g id="node16" class="node">
<title>15</title>
<path fill="none" stroke="#afd856" stroke-width="2" d="M297,-396C297,-396 251,-396 251,-396 245,-396 239,-390 239,-384 239,-384 239,-372 239,-372 239,-366 245,-360 251,-360 251,-360 297,-360 297,-360 303,-360 309,-366 309,-372 309,-372 309,-384 309,-384 309,-390 303,-396 297,-396"/>
<text text-anchor="middle" x="274" y="-375.5" font-family="sans" font-size="10.00">samtoBam</text>
</g>
<!-- 15&#45;&gt;5 -->
<g id="edge15" class="edge">
<title>15&#45;&gt;5</title>
<path fill="none" stroke="grey" stroke-width="2" d="M299.69,-359.88C313.29,-350.81 330.17,-339.55 344.86,-329.76"/>
<polygon fill="grey" stroke="grey" stroke-width="2" points="346.84,-332.65 353.22,-324.19 342.95,-326.82 346.84,-332.65"/>
</g>
<!-- 16 -->
<g id="node17" class="node">
<title>16</title>
<path fill="none" stroke="#afd856" stroke-width="2" stroke-dasharray="5,2" d="M438,-396C438,-396 392,-396 392,-396 386,-396 380,-390 380,-384 380,-384 380,-372 380,-372 380,-366 386,-360 392,-360 392,-360 438,-360 438,-360 444,-360 450,-366 450,-372 450,-372 450,-384 450,-384 450,-390 444,-396 438,-396"/>
<text text-anchor="middle" x="415" y="-375.5" font-family="sans" font-size="10.00">samtoBam</text>
</g>
<!-- 16&#45;&gt;6 -->
<g id="edge16" class="edge">
<title>16&#45;&gt;6</title>
<path fill="none" stroke="grey" stroke-width="2" d="M427.85,-359.7C434.03,-351.39 441.54,-341.28 448.32,-332.14"/>
<polygon fill="grey" stroke="grey" stroke-width="2" points="451.14,-334.22 454.29,-324.1 445.52,-330.04 451.14,-334.22"/>
</g>
<!-- 17 -->
<g id="node18" class="node">
<title>17</title>
<path fill="none" stroke="#afd856" stroke-width="2" d="M553,-396C553,-396 507,-396 507,-396 501,-396 495,-390 495,-384 495,-384 495,-372 495,-372 495,-366 501,-360 507,-360 507,-360 553,-360 553,-360 559,-360 565,-366 565,-372 565,-372 565,-384 565,-384 565,-390 559,-396 553,-396"/>
<text text-anchor="middle" x="530" y="-375.5" font-family="sans" font-size="10.00">samtoBam</text>
</g>
<!-- 17&#45;&gt;7 -->
<g id="edge17" class="edge">
<title>17&#45;&gt;7</title>
<path fill="none" stroke="grey" stroke-width="2" d="M535.19,-359.7C537.53,-351.9 540.35,-342.51 542.95,-333.83"/>
<polygon fill="grey" stroke="grey" stroke-width="2" points="546.35,-334.69 545.87,-324.1 539.64,-332.68 546.35,-334.69"/>
</g>
<!-- 18 -->
<g id="node19" class="node">
<title>18</title>
<path fill="none" stroke="#afd856" stroke-width="2" d="M654,-396C654,-396 608,-396 608,-396 602,-396 596,-390 596,-384 596,-384 596,-372 596,-372 596,-366 602,-360 608,-360 608,-360 654,-360 654,-360 660,-360 666,-366 666,-372 666,-372 666,-384 666,-384 666,-390 660,-396 654,-396"/>
<text text-anchor="middle" x="631" y="-375.5" font-family="sans" font-size="10.00">samtoBam</text>
</g>
<!-- 18&#45;&gt;8 -->
<g id="edge18" class="edge">
<title>18&#45;&gt;8</title>
<path fill="none" stroke="grey" stroke-width="2" d="M631.74,-359.7C632.07,-351.98 632.47,-342.71 632.84,-334.11"/>
<polygon fill="grey" stroke="grey" stroke-width="2" points="636.34,-334.25 633.27,-324.1 629.34,-333.95 636.34,-334.25"/>
</g>
<!-- 19 -->
<g id="node20" class="node">
<title>19</title>
<path fill="none" stroke="#afd856" stroke-width="2" stroke-dasharray="5,2" d="M754,-396C754,-396 708,-396 708,-396 702,-396 696,-390 696,-384 696,-384 696,-372 696,-372 696,-366 702,-360 708,-360 708,-360 754,-360 754,-360 760,-360 766,-366 766,-372 766,-372 766,-384 766,-384 766,-390 760,-396 754,-396"/>
<text text-anchor="middle" x="731" y="-375.5" font-family="sans" font-size="10.00">samtoBam</text>
</g>
<!-- 19&#45;&gt;9 -->
<g id="edge19" class="edge">
<title>19&#45;&gt;9</title>
<path fill="none" stroke="grey" stroke-width="2" d="M727.54,-359.7C726,-351.98 724.14,-342.71 722.42,-334.11"/>
<polygon fill="grey" stroke="grey" stroke-width="2" points="725.81,-333.22 720.42,-324.1 718.95,-334.6 725.81,-333.22"/>
</g>
<!-- 20 -->
<g id="node21" class="node">
<title>20</title>
<path fill="none" stroke="#afd856" stroke-width="2" d="M873,-396C873,-396 827,-396 827,-396 821,-396 815,-390 815,-384 815,-384 815,-372 815,-372 815,-366 821,-360 827,-360 827,-360 873,-360 873,-360 879,-360 885,-366 885,-372 885,-372 885,-384 885,-384 885,-390 879,-396 873,-396"/>
<text text-anchor="middle" x="850" y="-375.5" font-family="sans" font-size="10.00">samtoBam</text>
</g>
<!-- 20&#45;&gt;10 -->
<g id="edge20" class="edge">
<title>20&#45;&gt;10</title>
<path fill="none" stroke="grey" stroke-width="2" d="M838.13,-359.7C832.5,-351.47 825.65,-341.48 819.43,-332.42"/>
<polygon fill="grey" stroke="grey" stroke-width="2" points="822.27,-330.37 813.73,-324.1 816.5,-334.33 822.27,-330.37"/>
</g>
<!-- 21 -->
<g id="node22" class="node">
<title>21</title>
<path fill="none" stroke="#afd856" stroke-width="2" stroke-dasharray="5,2" d="M1002,-396C1002,-396 956,-396 956,-396 950,-396 944,-390 944,-384 944,-384 944,-372 944,-372 944,-366 950,-360 956,-360 956,-360 1002,-360 1002,-360 1008,-360 1014,-366 1014,-372 1014,-372 1014,-384 1014,-384 1014,-390 1008,-396 1002,-396"/>
<text text-anchor="middle" x="979" y="-375.5" font-family="sans" font-size="10.00">samtoBam</text>
</g>
<!-- 21&#45;&gt;11 -->
<g id="edge21" class="edge">
<title>21&#45;&gt;11</title>
<path fill="none" stroke="grey" stroke-width="2" d="M956.75,-359.7C945.42,-350.88 931.47,-340.03 919.18,-330.47"/>
<polygon fill="grey" stroke="grey" stroke-width="2" points="921.03,-327.48 910.99,-324.1 916.74,-333.01 921.03,-327.48"/>
</g>
<!-- 22 -->
<g id="node23" class="node">
<title>22</title>
<path fill="none" stroke="#afd856" stroke-width="2" stroke-dasharray="5,2" d="M1135,-396C1135,-396 1089,-396 1089,-396 1083,-396 1077,-390 1077,-384 1077,-384 1077,-372 1077,-372 1077,-366 1083,-360 1089,-360 1089,-360 1135,-360 1135,-360 1141,-360 1147,-366 1147,-372 1147,-372 1147,-384 1147,-384 1147,-390 1141,-396 1135,-396"/>
<text text-anchor="middle" x="1112" y="-375.5" font-family="sans" font-size="10.00">samtoBam</text>
</g>
<!-- 22&#45;&gt;12 -->
<g id="edge22" class="edge">
<title>22&#45;&gt;12</title>
<path fill="none" stroke="grey" stroke-width="2" d="M1078.73,-359.88C1059.99,-350.23 1036.45,-338.11 1016.63,-327.91"/>
<polygon fill="grey" stroke="grey" stroke-width="2" points="1018.02,-324.69 1007.52,-323.23 1014.81,-330.91 1018.02,-324.69"/>
</g>
<!-- 23 -->
<g id="node24" class="node">
<title>23</title>
<path fill="none" stroke="#afd856" stroke-width="2" stroke-dasharray="5,2" d="M1271,-396C1271,-396 1225,-396 1225,-396 1219,-396 1213,-390 1213,-384 1213,-384 1213,-372 1213,-372 1213,-366 1219,-360 1225,-360 1225,-360 1271,-360 1271,-360 1277,-360 1283,-366 1283,-372 1283,-372 1283,-384 1283,-384 1283,-390 1277,-396 1271,-396"/>
<text text-anchor="middle" x="1248" y="-375.5" font-family="sans" font-size="10.00">samtoBam</text>
</g>
<!-- 23&#45;&gt;13 -->
<g id="edge23" class="edge">
<title>23&#45;&gt;13</title>
<path fill="none" stroke="grey" stroke-width="2" d="M1212.96,-363.67C1182.25,-351.99 1137.58,-334.99 1105.17,-322.66"/>
<polygon fill="grey" stroke="grey" stroke-width="2" points="1106.13,-319.28 1095.54,-319 1103.64,-325.82 1106.13,-319.28"/>
</g>
<!-- 24 -->
<g id="node25" class="node">
<title>24</title>
<path fill="none" stroke="#d88d56" stroke-width="2" d="M82,-468C82,-468 52,-468 52,-468 46,-468 40,-462 40,-456 40,-456 40,-444 40,-444 40,-438 46,-432 52,-432 52,-432 82,-432 82,-432 88,-432 94,-438 94,-444 94,-444 94,-456 94,-456 94,-462 88,-468 82,-468"/>
<text text-anchor="middle" x="67" y="-447.5" font-family="sans" font-size="10.00">hisat</text>
</g>
<!-- 24&#45;&gt;14 -->
<g id="edge24" class="edge">
<title>24&#45;&gt;14</title>
<path fill="none" stroke="grey" stroke-width="2" d="M70.21,-431.7C71.65,-423.98 73.37,-414.71 74.96,-406.11"/>
<polygon fill="grey" stroke="grey" stroke-width="2" points="78.44,-406.58 76.82,-396.1 71.56,-405.3 78.44,-406.58"/>
</g>
<!-- 25 -->
<g id="node26" class="node">
<title>25</title>
<path fill="none" stroke="#d88d56" stroke-width="2" d="M240,-468C240,-468 210,-468 210,-468 204,-468 198,-462 198,-456 198,-456 198,-444 198,-444 198,-438 204,-432 210,-432 210,-432 240,-432 240,-432 246,-432 252,-438 252,-444 252,-444 252,-456 252,-456 252,-462 246,-468 240,-468"/>
<text text-anchor="middle" x="225" y="-447.5" font-family="sans" font-size="10.00">hisat</text>
</g>
<!-- 25&#45;&gt;15 -->
<g id="edge25" class="edge">
<title>25&#45;&gt;15</title>
<path fill="none" stroke="grey" stroke-width="2" d="M237.11,-431.7C242.87,-423.47 249.86,-413.48 256.21,-404.42"/>
<polygon fill="grey" stroke="grey" stroke-width="2" points="259.16,-406.3 262.03,-396.1 253.42,-402.29 259.16,-406.3"/>
</g>
<!-- 26 -->
<g id="node27" class="node">
<title>26</title>
<path fill="none" stroke="#d88d56" stroke-width="2" stroke-dasharray="5,2" d="M373,-468C373,-468 343,-468 343,-468 337,-468 331,-462 331,-456 331,-456 331,-444 331,-444 331,-438 337,-432 343,-432 343,-432 373,-432 373,-432 379,-432 385,-438 385,-444 385,-444 385,-456 385,-456 385,-462 379,-468 373,-468"/>
<text text-anchor="middle" x="358" y="-447.5" font-family="sans" font-size="10.00">hisat</text>
</g>
<!-- 26&#45;&gt;16 -->
<g id="edge26" class="edge">
<title>26&#45;&gt;16</title>
<path fill="none" stroke="grey" stroke-width="2" d="M372.09,-431.7C378.92,-423.3 387.26,-413.07 394.76,-403.86"/>
<polygon fill="grey" stroke="grey" stroke-width="2" points="397.47,-406.07 401.07,-396.1 392.04,-401.65 397.47,-406.07"/>
</g>
<!-- 27 -->
<g id="node28" class="node">
<title>27</title>
<path fill="none" stroke="#d88d56" stroke-width="2" d="M508,-468C508,-468 478,-468 478,-468 472,-468 466,-462 466,-456 466,-456 466,-444 466,-444 466,-438 472,-432 478,-432 478,-432 508,-432 508,-432 514,-432 520,-438 520,-444 520,-444 520,-456 520,-456 520,-462 514,-468 508,-468"/>
<text text-anchor="middle" x="493" y="-447.5" font-family="sans" font-size="10.00">hisat</text>
</g>
<!-- 27&#45;&gt;17 -->
<g id="edge27" class="edge">
<title>27&#45;&gt;17</title>
<path fill="none" stroke="grey" stroke-width="2" d="M502.15,-431.7C506.4,-423.64 511.56,-413.89 516.27,-404.98"/>
<polygon fill="grey" stroke="grey" stroke-width="2" points="519.38,-406.58 520.96,-396.1 513.19,-403.31 519.38,-406.58"/>
</g>
<!-- 28 -->
<g id="node29" class="node">
<title>28</title>
<path fill="none" stroke="#d88d56" stroke-width="2" d="M621,-468C621,-468 591,-468 591,-468 585,-468 579,-462 579,-456 579,-456 579,-444 579,-444 579,-438 585,-432 591,-432 591,-432 621,-432 621,-432 627,-432 633,-438 633,-444 633,-444 633,-456 633,-456 633,-462 627,-468 621,-468"/>
<text text-anchor="middle" x="606" y="-447.5" font-family="sans" font-size="10.00">hisat</text>
</g>
<!-- 28&#45;&gt;18 -->
<g id="edge28" class="edge">
<title>28&#45;&gt;18</title>
<path fill="none" stroke="grey" stroke-width="2" d="M612.18,-431.7C615,-423.81 618.39,-414.3 621.52,-405.55"/>
<polygon fill="grey" stroke="grey" stroke-width="2" points="624.82,-406.7 624.89,-396.1 618.23,-404.34 624.82,-406.7"/>
</g>
<!-- 29 -->
<g id="node30" class="node">
<title>29</title>
<path fill="none" stroke="#d88d56" stroke-width="2" stroke-dasharray="5,2" d="M749,-468C749,-468 719,-468 719,-468 713,-468 707,-462 707,-456 707,-456 707,-444 707,-444 707,-438 713,-432 719,-432 719,-432 749,-432 749,-432 755,-432 761,-438 761,-444 761,-444 761,-456 761,-456 761,-462 755,-468 749,-468"/>
<text text-anchor="middle" x="734" y="-447.5" font-family="sans" font-size="10.00">hisat</text>
</g>
<!-- 29&#45;&gt;19 -->
<g id="edge29" class="edge">
<title>29&#45;&gt;19</title>
<path fill="none" stroke="grey" stroke-width="2" d="M733.26,-431.7C732.93,-423.98 732.53,-414.71 732.16,-406.11"/>
<polygon fill="grey" stroke="grey" stroke-width="2" points="735.66,-405.95 731.73,-396.1 728.66,-406.25 735.66,-405.95"/>
</g>
<!-- 30 -->
<g id="node31" class="node">
<title>30</title>
<path fill="none" stroke="#d88d56" stroke-width="2" stroke-dasharray="5,2" d="M878,-468C878,-468 848,-468 848,-468 842,-468 836,-462 836,-456 836,-456 836,-444 836,-444 836,-438 842,-432 848,-432 848,-432 878,-432 878,-432 884,-432 890,-438 890,-444 890,-444 890,-456 890,-456 890,-462 884,-468 878,-468"/>
<text text-anchor="middle" x="863" y="-447.5" font-family="sans" font-size="10.00">hisat</text>
</g>
<!-- 30&#45;&gt;20 -->
<g id="edge30" class="edge">
<title>30&#45;&gt;20</title>
<path fill="none" stroke="grey" stroke-width="2" d="M859.79,-431.7C858.35,-423.98 856.63,-414.71 855.04,-406.11"/>
<polygon fill="grey" stroke="grey" stroke-width="2" points="858.44,-405.3 853.18,-396.1 851.56,-406.58 858.44,-405.3"/>
</g>
<!-- 31 -->
<g id="node32" class="node">
<title>31</title>
<path fill="none" stroke="#d88d56" stroke-width="2" stroke-dasharray="5,2" d="M1011,-468C1011,-468 981,-468 981,-468 975,-468 969,-462 969,-456 969,-456 969,-444 969,-444 969,-438 975,-432 981,-432 981,-432 1011,-432 1011,-432 1017,-432 1023,-438 1023,-444 1023,-444 1023,-456 1023,-456 1023,-462 1017,-468 1011,-468"/>
<text text-anchor="middle" x="996" y="-447.5" font-family="sans" font-size="10.00">hisat</text>
</g>
<!-- 31&#45;&gt;21 -->
<g id="edge31" class="edge">
<title>31&#45;&gt;21</title>
<path fill="none" stroke="grey" stroke-width="2" d="M991.8,-431.7C989.9,-423.9 987.62,-414.51 985.52,-405.83"/>
<polygon fill="grey" stroke="grey" stroke-width="2" points="988.92,-405 983.15,-396.1 982.11,-406.65 988.92,-405"/>
</g>
<!-- 32 -->
<g id="node33" class="node">
<title>32</title>
<path fill="none" stroke="#d88d56" stroke-width="2" stroke-dasharray="5,2" d="M1147,-468C1147,-468 1117,-468 1117,-468 1111,-468 1105,-462 1105,-456 1105,-456 1105,-444 1105,-444 1105,-438 1111,-432 1117,-432 1117,-432 1147,-432 1147,-432 1153,-432 1159,-438 1159,-444 1159,-444 1159,-456 1159,-456 1159,-462 1153,-468 1147,-468"/>
<text text-anchor="middle" x="1132" y="-447.5" font-family="sans" font-size="10.00">hisat</text>
</g>
<!-- 32&#45;&gt;22 -->
<g id="edge32" class="edge">
<title>32&#45;&gt;22</title>
<path fill="none" stroke="grey" stroke-width="2" d="M1127.06,-431.7C1124.83,-423.9 1122.15,-414.51 1119.67,-405.83"/>
<polygon fill="grey" stroke="grey" stroke-width="2" points="1123,-404.76 1116.89,-396.1 1116.27,-406.68 1123,-404.76"/>
</g>
<!-- 33 -->
<g id="node34" class="node">
<title>33</title>
<path fill="none" stroke="#d88d56" stroke-width="2" stroke-dasharray="5,2" d="M1284,-468C1284,-468 1254,-468 1254,-468 1248,-468 1242,-462 1242,-456 1242,-456 1242,-444 1242,-444 1242,-438 1248,-432 1254,-432 1254,-432 1284,-432 1284,-432 1290,-432 1296,-438 1296,-444 1296,-444 1296,-456 1296,-456 1296,-462 1290,-468 1284,-468"/>
<text text-anchor="middle" x="1269" y="-447.5" font-family="sans" font-size="10.00">hisat</text>
</g>
<!-- 33&#45;&gt;23 -->
<g id="edge33" class="edge">
<title>33&#45;&gt;23</title>
<path fill="none" stroke="grey" stroke-width="2" d="M1263.81,-431.7C1261.47,-423.9 1258.65,-414.51 1256.05,-405.83"/>
<polygon fill="grey" stroke="grey" stroke-width="2" points="1259.36,-404.68 1253.13,-396.1 1252.65,-406.69 1259.36,-404.68"/>
</g>
<!-- 34 -->
<g id="node35" class="node">
<title>34</title>
<path fill="none" stroke="#d85656" stroke-width="2" stroke-dasharray="5,2" d="M108,-545C108,-545 12,-545 12,-545 6,-545 0,-539 0,-533 0,-533 0,-516 0,-516 0,-510 6,-504 12,-504 12,-504 108,-504 108,-504 114,-504 120,-510 120,-516 120,-516 120,-533 120,-533 120,-539 114,-545 108,-545"/>
<text text-anchor="middle" x="60" y="-533" font-family="sans" font-size="10.00">download</text>
<text text-anchor="middle" x="60" y="-522" font-family="sans" font-size="10.00">sample: SRR1573523</text>
<text text-anchor="middle" x="60" y="-511" font-family="sans" font-size="10.00">wd: maize_out</text>
</g>
<!-- 34&#45;&gt;24 -->
<g id="edge34" class="edge">
<title>34&#45;&gt;24</title>
<path fill="none" stroke="grey" stroke-width="2" d="M61.91,-503.69C62.66,-495.91 63.54,-486.84 64.35,-478.45"/>
<polygon fill="grey" stroke="grey" stroke-width="2" points="67.85,-478.61 65.33,-468.32 60.88,-477.94 67.85,-478.61"/>
</g>
<!-- 35 -->
<g id="node36" class="node">
<title>35</title>
<path fill="none" stroke="#d85656" stroke-width="2" stroke-dasharray="5,2" d="M240,-545C240,-545 150,-545 150,-545 144,-545 138,-539 138,-533 138,-533 138,-516 138,-516 138,-510 144,-504 150,-504 150,-504 240,-504 240,-504 246,-504 252,-510 252,-516 252,-516 252,-533 252,-533 252,-539 246,-545 240,-545"/>
<text text-anchor="middle" x="195" y="-533" font-family="sans" font-size="10.00">download</text>
<text text-anchor="middle" x="195" y="-522" font-family="sans" font-size="10.00">sample: SRR999058</text>
<text text-anchor="middle" x="195" y="-511" font-family="sans" font-size="10.00">wd: maize_out</text>
</g>
<!-- 35&#45;&gt;25 -->
<g id="edge35" class="edge">
<title>35&#45;&gt;25</title>
<path fill="none" stroke="grey" stroke-width="2" d="M203.2,-503.69C206.53,-495.65 210.42,-486.24 213.99,-477.61"/>
<polygon fill="grey" stroke="grey" stroke-width="2" points="217.24,-478.9 217.83,-468.32 210.78,-476.22 217.24,-478.9"/>
</g>
<!-- 36 -->
<g id="node37" class="node">
<title>36</title>
<path fill="none" stroke="#d85656" stroke-width="2" stroke-dasharray="5,2" d="M372,-545C372,-545 282,-545 282,-545 276,-545 270,-539 270,-533 270,-533 270,-516 270,-516 270,-510 276,-504 282,-504 282,-504 372,-504 372,-504 378,-504 384,-510 384,-516 384,-516 384,-533 384,-533 384,-539 378,-545 372,-545"/>
<text text-anchor="middle" x="327" y="-533" font-family="sans" font-size="10.00">download</text>
<text text-anchor="middle" x="327" y="-522" font-family="sans" font-size="10.00">sample: SRR520999</text>
<text text-anchor="middle" x="327" y="-511" font-family="sans" font-size="10.00">wd: maize_out</text>
</g>
<!-- 36&#45;&gt;26 -->
<g id="edge36" class="edge">
<title>36&#45;&gt;26</title>
<path fill="none" stroke="grey" stroke-width="2" d="M335.47,-503.69C338.91,-495.65 342.93,-486.24 346.62,-477.61"/>
<polygon fill="grey" stroke="grey" stroke-width="2" points="349.88,-478.89 350.59,-468.32 343.44,-476.14 349.88,-478.89"/>
</g>
<!-- 37 -->
<g id="node38" class="node">
<title>37</title>
<path fill="none" stroke="#d85656" stroke-width="2" stroke-dasharray="5,2" d="M510,-545C510,-545 414,-545 414,-545 408,-545 402,-539 402,-533 402,-533 402,-516 402,-516 402,-510 408,-504 414,-504 414,-504 510,-504 510,-504 516,-504 522,-510 522,-516 522,-516 522,-533 522,-533 522,-539 516,-545 510,-545"/>
<text text-anchor="middle" x="462" y="-533" font-family="sans" font-size="10.00">download</text>
<text text-anchor="middle" x="462" y="-522" font-family="sans" font-size="10.00">sample: SRR1168424</text>
<text text-anchor="middle" x="462" y="-511" font-family="sans" font-size="10.00">wd: maize_out</text>
</g>
<!-- 37&#45;&gt;27 -->
<g id="edge37" class="edge">
<title>37&#45;&gt;27</title>
<path fill="none" stroke="grey" stroke-width="2" d="M470.47,-503.69C473.91,-495.65 477.93,-486.24 481.62,-477.61"/>
<polygon fill="grey" stroke="grey" stroke-width="2" points="484.88,-478.89 485.59,-468.32 478.44,-476.14 484.88,-478.89"/>
</g>
<!-- 38 -->
<g id="node39" class="node">
<title>38</title>
<path fill="none" stroke="#d85656" stroke-width="2" stroke-dasharray="5,2" d="M648,-545C648,-545 552,-545 552,-545 546,-545 540,-539 540,-533 540,-533 540,-516 540,-516 540,-510 546,-504 552,-504 552,-504 648,-504 648,-504 654,-504 660,-510 660,-516 660,-516 660,-533 660,-533 660,-539 654,-545 648,-545"/>
<text text-anchor="middle" x="600" y="-533" font-family="sans" font-size="10.00">download</text>
<text text-anchor="middle" x="600" y="-522" font-family="sans" font-size="10.00">sample: SRR1621015</text>
<text text-anchor="middle" x="600" y="-511" font-family="sans" font-size="10.00">wd: maize_out</text>
</g>
<!-- 38&#45;&gt;28 -->
<g id="edge38" class="edge">
<title>38&#45;&gt;28</title>
<path fill="none" stroke="grey" stroke-width="2" d="M601.64,-503.69C602.28,-495.91 603.03,-486.84 603.73,-478.45"/>
<polygon fill="grey" stroke="grey" stroke-width="2" points="607.23,-478.57 604.57,-468.32 600.25,-478 607.23,-478.57"/>
</g>
<!-- 39 -->
<g id="node40" class="node">
<title>39</title>
<path fill="none" stroke="#d85656" stroke-width="2" stroke-dasharray="5,2" d="M786,-545C786,-545 690,-545 690,-545 684,-545 678,-539 678,-533 678,-533 678,-516 678,-516 678,-510 684,-504 690,-504 690,-504 786,-504 786,-504 792,-504 798,-510 798,-516 798,-516 798,-533 798,-533 798,-539 792,-545 786,-545"/>
<text text-anchor="middle" x="738" y="-533" font-family="sans" font-size="10.00">download</text>
<text text-anchor="middle" x="738" y="-522" font-family="sans" font-size="10.00">sample: SRR3084882</text>
<text text-anchor="middle" x="738" y="-511" font-family="sans" font-size="10.00">wd: maize_out</text>
</g>
<!-- 39&#45;&gt;29 -->
<g id="edge39" class="edge">
<title>39&#45;&gt;29</title>
<path fill="none" stroke="grey" stroke-width="2" d="M736.91,-503.69C736.48,-495.91 735.98,-486.84 735.51,-478.45"/>
<polygon fill="grey" stroke="grey" stroke-width="2" points="739,-478.11 734.96,-468.32 732.01,-478.5 739,-478.11"/>
</g>
<!-- 40 -->
<g id="node41" class="node">
<title>40</title>
<path fill="none" stroke="#d85656" stroke-width="2" stroke-dasharray="5,2" d="M924,-545C924,-545 828,-545 828,-545 822,-545 816,-539 816,-533 816,-533 816,-516 816,-516 816,-510 822,-504 828,-504 828,-504 924,-504 924,-504 930,-504 936,-510 936,-516 936,-516 936,-533 936,-533 936,-539 930,-545 924,-545"/>
<text text-anchor="middle" x="876" y="-533" font-family="sans" font-size="10.00">download</text>
<text text-anchor="middle" x="876" y="-522" font-family="sans" font-size="10.00">sample: SRR1620828</text>
<text text-anchor="middle" x="876" y="-511" font-family="sans" font-size="10.00">wd: maize_out</text>
</g>
<!-- 40&#45;&gt;30 -->
<g id="edge40" class="edge">
<title>40&#45;&gt;30</title>
<path fill="none" stroke="grey" stroke-width="2" d="M872.45,-503.69C871.04,-495.82 869.39,-486.64 867.87,-478.17"/>
<polygon fill="grey" stroke="grey" stroke-width="2" points="871.32,-477.54 866.11,-468.32 864.43,-478.78 871.32,-477.54"/>
</g>
<!-- 41 -->
<g id="node42" class="node">
<title>41</title>
<path fill="none" stroke="#d85656" stroke-width="2" stroke-dasharray="5,2" d="M1062,-545C1062,-545 966,-545 966,-545 960,-545 954,-539 954,-533 954,-533 954,-516 954,-516 954,-510 960,-504 966,-504 966,-504 1062,-504 1062,-504 1068,-504 1074,-510 1074,-516 1074,-516 1074,-533 1074,-533 1074,-539 1068,-545 1062,-545"/>
<text text-anchor="middle" x="1014" y="-533" font-family="sans" font-size="10.00">download</text>
<text text-anchor="middle" x="1014" y="-522" font-family="sans" font-size="10.00">sample: SRR3053545</text>
<text text-anchor="middle" x="1014" y="-511" font-family="sans" font-size="10.00">wd: maize_out</text>
</g>
<!-- 41&#45;&gt;31 -->
<g id="edge41" class="edge">
<title>41&#45;&gt;31</title>
<path fill="none" stroke="grey" stroke-width="2" d="M1009.08,-503.69C1007.13,-495.82 1004.85,-486.64 1002.75,-478.17"/>
<polygon fill="grey" stroke="grey" stroke-width="2" points="1006.11,-477.18 1000.3,-468.32 999.31,-478.87 1006.11,-477.18"/>
</g>
<!-- 42 -->
<g id="node43" class="node">
<title>42</title>
<path fill="none" stroke="#d85656" stroke-width="2" stroke-dasharray="5,2" d="M1200,-545C1200,-545 1104,-545 1104,-545 1098,-545 1092,-539 1092,-533 1092,-533 1092,-516 1092,-516 1092,-510 1098,-504 1104,-504 1104,-504 1200,-504 1200,-504 1206,-504 1212,-510 1212,-516 1212,-516 1212,-533 1212,-533 1212,-539 1206,-545 1200,-545"/>
<text text-anchor="middle" x="1152" y="-533" font-family="sans" font-size="10.00">download</text>
<text text-anchor="middle" x="1152" y="-522" font-family="sans" font-size="10.00">sample: SRR1620949</text>
<text text-anchor="middle" x="1152" y="-511" font-family="sans" font-size="10.00">wd: maize_out</text>
</g>
<!-- 42&#45;&gt;32 -->
<g id="edge42" class="edge">
<title>42&#45;&gt;32</title>
<path fill="none" stroke="grey" stroke-width="2" d="M1146.53,-503.69C1144.36,-495.82 1141.83,-486.64 1139.49,-478.17"/>
<polygon fill="grey" stroke="grey" stroke-width="2" points="1142.81,-477.03 1136.78,-468.32 1136.06,-478.89 1142.81,-477.03"/>
</g>
<!-- 43 -->
<g id="node44" class="node">
<title>43</title>
<path fill="none" stroke="#d85656" stroke-width="2" stroke-dasharray="5,2" d="M1338,-545C1338,-545 1242,-545 1242,-545 1236,-545 1230,-539 1230,-533 1230,-533 1230,-516 1230,-516 1230,-510 1236,-504 1242,-504 1242,-504 1338,-504 1338,-504 1344,-504 1350,-510 1350,-516 1350,-516 1350,-533 1350,-533 1350,-539 1344,-545 1338,-545"/>
<text text-anchor="middle" x="1290" y="-533" font-family="sans" font-size="10.00">download</text>
<text text-anchor="middle" x="1290" y="-522" font-family="sans" font-size="10.00">sample: SRR1620947</text>
<text text-anchor="middle" x="1290" y="-511" font-family="sans" font-size="10.00">wd: maize_out</text>
</g>
<!-- 43&#45;&gt;33 -->
<g id="edge43" class="edge">
<title>43&#45;&gt;33</title>
<path fill="none" stroke="grey" stroke-width="2" d="M1284.26,-503.69C1281.98,-495.82 1279.32,-486.64 1276.87,-478.17"/>
<polygon fill="grey" stroke="grey" stroke-width="2" points="1280.16,-476.95 1274.02,-468.32 1273.44,-478.9 1280.16,-476.95"/>
</g>
</g>
</svg>
