<?xml version="1.0" encoding="UTF-8" standalone="no"?>
<!DOCTYPE svg PUBLIC "-//W3C//DTD SVG 1.1//EN"
 "http://www.w3.org/Graphics/SVG/1.1/DTD/svg11.dtd">
<!-- Generated by graphviz version 2.42.3 (20191010.1750)
 -->
<!-- Title: snakemake_dag Pages: 1 -->
<svg width="1358pt" height="697pt"
 viewBox="0.00 0.00 1358.00 697.00" xmlns="http://www.w3.org/2000/svg" xmlns:xlink="http://www.w3.org/1999/xlink">
<g id="graph0" class="graph" transform="scale(1 1) rotate(0) translate(4 693)">
<title>snakemake_dag</title>
<polygon fill="white" stroke="transparent" points="-4,4 -4,-693 1354,-693 1354,4 -4,4"/>
<!-- 0 -->
<g id="node1" class="node">
<title>0</title>
<path fill="none" stroke="#9fd856" stroke-width="2" d="M689,-36C689,-36 659,-36 659,-36 653,-36 647,-30 647,-24 647,-24 647,-12 647,-12 647,-6 653,0 659,0 659,0 689,0 689,0 695,0 701,-6 701,-12 701,-12 701,-24 701,-24 701,-30 695,-36 689,-36"/>
<text text-anchor="middle" x="674" y="-15.5" font-family="sans" font-size="10.00">all</text>
</g>
<!-- 1 -->
<g id="node2" class="node">
<title>1</title>
<path fill="none" stroke="#ced856" stroke-width="2" d="M693.5,-108C693.5,-108 654.5,-108 654.5,-108 648.5,-108 642.5,-102 642.5,-96 642.5,-96 642.5,-84 642.5,-84 642.5,-78 648.5,-72 654.5,-72 654.5,-72 693.5,-72 693.5,-72 699.5,-72 705.5,-78 705.5,-84 705.5,-84 705.5,-96 705.5,-96 705.5,-102 699.5,-108 693.5,-108"/>
<text text-anchor="middle" x="674" y="-87.5" font-family="sans" font-size="10.00">summary</text>
</g>
<!-- 1&#45;&gt;0 -->
<g id="edge1" class="edge">
<title>1&#45;&gt;0</title>
<path fill="none" stroke="grey" stroke-width="2" d="M674,-71.7C674,-63.98 674,-54.71 674,-46.11"/>
<polygon fill="grey" stroke="grey" stroke-width="2" points="677.5,-46.1 674,-36.1 670.5,-46.1 677.5,-46.1"/>
</g>
<!-- 2 -->
<g id="node3" class="node">
<title>2</title>
<path fill="none" stroke="#d8b456" stroke-width="2" d="M697.5,-180C697.5,-180 650.5,-180 650.5,-180 644.5,-180 638.5,-174 638.5,-168 638.5,-168 638.5,-156 638.5,-156 638.5,-150 644.5,-144 650.5,-144 650.5,-144 697.5,-144 697.5,-144 703.5,-144 709.5,-150 709.5,-156 709.5,-156 709.5,-168 709.5,-168 709.5,-174 703.5,-180 697.5,-180"/>
<text text-anchor="middle" x="674" y="-159.5" font-family="sans" font-size="10.00">get_orphan</text>
</g>
<!-- 2&#45;&gt;1 -->
<g id="edge2" class="edge">
<title>2&#45;&gt;1</title>
<path fill="none" stroke="grey" stroke-width="2" d="M674,-143.7C674,-135.98 674,-126.71 674,-118.11"/>
<polygon fill="grey" stroke="grey" stroke-width="2" points="677.5,-118.1 674,-108.1 670.5,-118.1 677.5,-118.1"/>
</g>
<!-- 3 -->
<g id="node4" class="node">
<title>3</title>
<path fill="none" stroke="#70d856" stroke-width="2" d="M689,-252C689,-252 659,-252 659,-252 653,-252 647,-246 647,-240 647,-240 647,-228 647,-228 647,-222 653,-216 659,-216 659,-216 689,-216 689,-216 695,-216 701,-222 701,-228 701,-228 701,-240 701,-240 701,-246 695,-252 689,-252"/>
<text text-anchor="middle" x="674" y="-231.5" font-family="sans" font-size="10.00">gffread</text>
</g>
<!-- 3&#45;&gt;2 -->
<g id="edge3" class="edge">
<title>3&#45;&gt;2</title>
<path fill="none" stroke="grey" stroke-width="2" d="M674,-215.7C674,-207.98 674,-198.71 674,-190.11"/>
<polygon fill="grey" stroke="grey" stroke-width="2" points="677.5,-190.1 674,-180.1 670.5,-190.1 677.5,-190.1"/>
</g>
<!-- 4 -->
<g id="node5" class="node">
<title>4</title>
<path fill="none" stroke="#5682d8" stroke-width="2" stroke-dasharray="5,2" d="M705.5,-324C705.5,-324 642.5,-324 642.5,-324 636.5,-324 630.5,-318 630.5,-312 630.5,-312 630.5,-300 630.5,-300 630.5,-294 636.5,-288 642.5,-288 642.5,-288 705.5,-288 705.5,-288 711.5,-288 717.5,-294 717.5,-300 717.5,-300 717.5,-312 717.5,-312 717.5,-318 711.5,-324 705.5,-324"/>
<text text-anchor="middle" x="674" y="-303.5" font-family="sans" font-size="10.00">stringtieMerge</text>
</g>
<!-- 4&#45;&gt;3 -->
<g id="edge4" class="edge">
<title>4&#45;&gt;3</title>
<path fill="none" stroke="grey" stroke-width="2" d="M674,-287.7C674,-279.98 674,-270.71 674,-262.11"/>
<polygon fill="grey" stroke="grey" stroke-width="2" points="677.5,-262.1 674,-252.1 670.5,-262.1 677.5,-262.1"/>
</g>
<!-- 5 -->
<g id="node6" class="node">
<title>5</title>
<path fill="none" stroke="#56b1d8" stroke-width="2" stroke-dasharray="5,2" d="M705,-396C705,-396 643,-396 643,-396 637,-396 631,-390 631,-384 631,-384 631,-372 631,-372 631,-366 637,-360 643,-360 643,-360 705,-360 705,-360 711,-360 717,-366 717,-372 717,-372 717,-384 717,-384 717,-390 711,-396 705,-396"/>
<text text-anchor="middle" x="674" y="-375.5" font-family="sans" font-size="10.00">create_GTFlist</text>
</g>
<!-- 5&#45;&gt;4 -->
<g id="edge5" class="edge">
<title>5&#45;&gt;4</title>
<path fill="none" stroke="grey" stroke-width="2" d="M674,-359.7C674,-351.98 674,-342.71 674,-334.11"/>
<polygon fill="grey" stroke="grey" stroke-width="2" points="677.5,-334.1 674,-324.1 670.5,-334.1 677.5,-334.1"/>
</g>
<!-- 6 -->
<g id="node7" class="node">
<title>6</title>
<path fill="none" stroke="#56d89a" stroke-width="2" stroke-dasharray="5,2" d="M303.5,-468C303.5,-468 264.5,-468 264.5,-468 258.5,-468 252.5,-462 252.5,-456 252.5,-456 252.5,-444 252.5,-444 252.5,-438 258.5,-432 264.5,-432 264.5,-432 303.5,-432 303.5,-432 309.5,-432 315.5,-438 315.5,-444 315.5,-444 315.5,-456 315.5,-456 315.5,-462 309.5,-468 303.5,-468"/>
<text text-anchor="middle" x="284" y="-447.5" font-family="sans" font-size="10.00">stringtie1</text>
</g>
<!-- 6&#45;&gt;5 -->
<g id="edge6" class="edge">
<title>6&#45;&gt;5</title>
<path fill="none" stroke="grey" stroke-width="2" d="M315.76,-438.14C323.01,-435.9 330.73,-433.71 338,-432 436.64,-408.83 553.98,-392.91 620.65,-384.93"/>
<polygon fill="grey" stroke="grey" stroke-width="2" points="621.39,-388.37 630.91,-383.72 620.57,-381.42 621.39,-388.37"/>
</g>
<!-- 7 -->
<g id="node8" class="node">
<title>7</title>
<path fill="none" stroke="#56d89a" stroke-width="2" stroke-dasharray="5,2" d="M398.5,-468C398.5,-468 359.5,-468 359.5,-468 353.5,-468 347.5,-462 347.5,-456 347.5,-456 347.5,-444 347.5,-444 347.5,-438 353.5,-432 359.5,-432 359.5,-432 398.5,-432 398.5,-432 404.5,-432 410.5,-438 410.5,-444 410.5,-444 410.5,-456 410.5,-456 410.5,-462 404.5,-468 398.5,-468"/>
<text text-anchor="middle" x="379" y="-447.5" font-family="sans" font-size="10.00">stringtie1</text>
</g>
<!-- 7&#45;&gt;5 -->
<g id="edge7" class="edge">
<title>7&#45;&gt;5</title>
<path fill="none" stroke="grey" stroke-width="2" d="M410.66,-436.88C415.75,-435.13 420.99,-433.43 426,-432 492.33,-413.01 570.38,-397.41 620.95,-388.17"/>
<polygon fill="grey" stroke="grey" stroke-width="2" points="621.78,-391.57 631,-386.35 620.53,-384.68 621.78,-391.57"/>
</g>
<!-- 8 -->
<g id="node9" class="node">
<title>8</title>
<path fill="none" stroke="#56d89a" stroke-width="2" stroke-dasharray="5,2" d="M486.5,-468C486.5,-468 447.5,-468 447.5,-468 441.5,-468 435.5,-462 435.5,-456 435.5,-456 435.5,-444 435.5,-444 435.5,-438 441.5,-432 447.5,-432 447.5,-432 486.5,-432 486.5,-432 492.5,-432 498.5,-438 498.5,-444 498.5,-444 498.5,-456 498.5,-456 498.5,-462 492.5,-468 486.5,-468"/>
<text text-anchor="middle" x="467" y="-447.5" font-family="sans" font-size="10.00">stringtie1</text>
</g>
<!-- 8&#45;&gt;5 -->
<g id="edge8" class="edge">
<title>8&#45;&gt;5</title>
<path fill="none" stroke="grey" stroke-width="2" d="M498.85,-436.15C502.59,-434.71 506.37,-433.3 510,-432 546.88,-418.77 588.94,-405.2 621.24,-395.11"/>
<polygon fill="grey" stroke="grey" stroke-width="2" points="622.42,-398.41 630.93,-392.09 620.34,-391.72 622.42,-398.41"/>
</g>
<!-- 9 -->
<g id="node10" class="node">
<title>9</title>
<path fill="none" stroke="#56d89a" stroke-width="2" stroke-dasharray="5,2" d="M570.5,-468C570.5,-468 531.5,-468 531.5,-468 525.5,-468 519.5,-462 519.5,-456 519.5,-456 519.5,-444 519.5,-444 519.5,-438 525.5,-432 531.5,-432 531.5,-432 570.5,-432 570.5,-432 576.5,-432 582.5,-438 582.5,-444 582.5,-444 582.5,-456 582.5,-456 582.5,-462 576.5,-468 570.5,-468"/>
<text text-anchor="middle" x="551" y="-447.5" font-family="sans" font-size="10.00">stringtie1</text>
</g>
<!-- 9&#45;&gt;5 -->
<g id="edge9" class="edge">
<title>9&#45;&gt;5</title>
<path fill="none" stroke="grey" stroke-width="2" d="M581.09,-431.88C597.32,-422.64 617.54,-411.13 634.97,-401.21"/>
<polygon fill="grey" stroke="grey" stroke-width="2" points="636.84,-404.18 643.8,-396.19 633.37,-398.09 636.84,-404.18"/>
</g>
<!-- 10 -->
<g id="node11" class="node">
<title>10</title>
<path fill="none" stroke="#56d89a" stroke-width="2" stroke-dasharray="5,2" d="M653.5,-468C653.5,-468 614.5,-468 614.5,-468 608.5,-468 602.5,-462 602.5,-456 602.5,-456 602.5,-444 602.5,-444 602.5,-438 608.5,-432 614.5,-432 614.5,-432 653.5,-432 653.5,-432 659.5,-432 665.5,-438 665.5,-444 665.5,-444 665.5,-456 665.5,-456 665.5,-462 659.5,-468 653.5,-468"/>
<text text-anchor="middle" x="634" y="-447.5" font-family="sans" font-size="10.00">stringtie1</text>
</g>
<!-- 10&#45;&gt;5 -->
<g id="edge10" class="edge">
<title>10&#45;&gt;5</title>
<path fill="none" stroke="grey" stroke-width="2" d="M643.89,-431.7C648.49,-423.64 654.06,-413.89 659.15,-404.98"/>
<polygon fill="grey" stroke="grey" stroke-width="2" points="662.3,-406.52 664.23,-396.1 656.23,-403.05 662.3,-406.52"/>
</g>
<!-- 11 -->
<g id="node12" class="node">
<title>11</title>
<path fill="none" stroke="#56d89a" stroke-width="2" stroke-dasharray="5,2" d="M736.5,-468C736.5,-468 697.5,-468 697.5,-468 691.5,-468 685.5,-462 685.5,-456 685.5,-456 685.5,-444 685.5,-444 685.5,-438 691.5,-432 697.5,-432 697.5,-432 736.5,-432 736.5,-432 742.5,-432 748.5,-438 748.5,-444 748.5,-444 748.5,-456 748.5,-456 748.5,-462 742.5,-468 736.5,-468"/>
<text text-anchor="middle" x="717" y="-447.5" font-family="sans" font-size="10.00">stringtie1</text>
</g>
<!-- 11&#45;&gt;5 -->
<g id="edge11" class="edge">
<title>11&#45;&gt;5</title>
<path fill="none" stroke="grey" stroke-width="2" d="M706.37,-431.7C701.37,-423.56 695.31,-413.69 689.79,-404.7"/>
<polygon fill="grey" stroke="grey" stroke-width="2" points="692.72,-402.79 684.51,-396.1 686.76,-406.46 692.72,-402.79"/>
</g>
<!-- 12 -->
<g id="node13" class="node">
<title>12</title>
<path fill="none" stroke="#56d89a" stroke-width="2" stroke-dasharray="5,2" d="M821.5,-468C821.5,-468 782.5,-468 782.5,-468 776.5,-468 770.5,-462 770.5,-456 770.5,-456 770.5,-444 770.5,-444 770.5,-438 776.5,-432 782.5,-432 782.5,-432 821.5,-432 821.5,-432 827.5,-432 833.5,-438 833.5,-444 833.5,-444 833.5,-456 833.5,-456 833.5,-462 827.5,-468 821.5,-468"/>
<text text-anchor="middle" x="802" y="-447.5" font-family="sans" font-size="10.00">stringtie1</text>
</g>
<!-- 12&#45;&gt;5 -->
<g id="edge12" class="edge">
<title>12&#45;&gt;5</title>
<path fill="none" stroke="grey" stroke-width="2" d="M770.69,-431.88C753.8,-422.64 732.75,-411.13 714.62,-401.21"/>
<polygon fill="grey" stroke="grey" stroke-width="2" points="715.89,-397.92 705.43,-396.19 712.53,-404.06 715.89,-397.92"/>
</g>
<!-- 13 -->
<g id="node14" class="node">
<title>13</title>
<path fill="none" stroke="#56d89a" stroke-width="2" stroke-dasharray="5,2" d="M908.5,-468C908.5,-468 869.5,-468 869.5,-468 863.5,-468 857.5,-462 857.5,-456 857.5,-456 857.5,-444 857.5,-444 857.5,-438 863.5,-432 869.5,-432 869.5,-432 908.5,-432 908.5,-432 914.5,-432 920.5,-438 920.5,-444 920.5,-444 920.5,-456 920.5,-456 920.5,-462 914.5,-468 908.5,-468"/>
<text text-anchor="middle" x="889" y="-447.5" font-family="sans" font-size="10.00">stringtie1</text>
</g>
<!-- 13&#45;&gt;5 -->
<g id="edge13" class="edge">
<title>13&#45;&gt;5</title>
<path fill="none" stroke="grey" stroke-width="2" d="M857.4,-437.09C852.59,-435.34 847.67,-433.6 843,-432 804.33,-418.8 760.27,-405.02 726.84,-394.83"/>
<polygon fill="grey" stroke="grey" stroke-width="2" points="727.85,-391.47 717.26,-391.91 725.81,-398.17 727.85,-391.47"/>
</g>
<!-- 14 -->
<g id="node15" class="node">
<title>14</title>
<path fill="none" stroke="#56d89a" stroke-width="2" stroke-dasharray="5,2" d="M995.5,-468C995.5,-468 956.5,-468 956.5,-468 950.5,-468 944.5,-462 944.5,-456 944.5,-456 944.5,-444 944.5,-444 944.5,-438 950.5,-432 956.5,-432 956.5,-432 995.5,-432 995.5,-432 1001.5,-432 1007.5,-438 1007.5,-444 1007.5,-444 1007.5,-456 1007.5,-456 1007.5,-462 1001.5,-468 995.5,-468"/>
<text text-anchor="middle" x="976" y="-447.5" font-family="sans" font-size="10.00">stringtie1</text>
</g>
<!-- 14&#45;&gt;5 -->
<g id="edge14" class="edge">
<title>14&#45;&gt;5</title>
<path fill="none" stroke="grey" stroke-width="2" d="M944.03,-436.49C939.36,-434.87 934.58,-433.31 930,-432 860.87,-412.19 779.25,-396.6 727.08,-387.59"/>
<polygon fill="grey" stroke="grey" stroke-width="2" points="727.5,-384.12 717.06,-385.88 726.32,-391.02 727.5,-384.12"/>
</g>
<!-- 15 -->
<g id="node16" class="node">
<title>15</title>
<path fill="none" stroke="#56d89a" stroke-width="2" stroke-dasharray="5,2" d="M1083.5,-468C1083.5,-468 1044.5,-468 1044.5,-468 1038.5,-468 1032.5,-462 1032.5,-456 1032.5,-456 1032.5,-444 1032.5,-444 1032.5,-438 1038.5,-432 1044.5,-432 1044.5,-432 1083.5,-432 1083.5,-432 1089.5,-432 1095.5,-438 1095.5,-444 1095.5,-444 1095.5,-456 1095.5,-456 1095.5,-462 1089.5,-468 1083.5,-468"/>
<text text-anchor="middle" x="1064" y="-447.5" font-family="sans" font-size="10.00">stringtie1</text>
</g>
<!-- 15&#45;&gt;5 -->
<g id="edge15" class="edge">
<title>15&#45;&gt;5</title>
<path fill="none" stroke="grey" stroke-width="2" d="M1032.41,-436.63C1027.31,-434.91 1022.04,-433.29 1017,-432 916.08,-406.21 795.04,-391.08 727.08,-383.98"/>
<polygon fill="grey" stroke="grey" stroke-width="2" points="727.35,-380.49 717.05,-382.95 726.64,-387.45 727.35,-380.49"/>
</g>
<!-- 16 -->
<g id="node17" class="node">
<title>16</title>
<path fill="none" stroke="#d85656" stroke-width="2" stroke-dasharray="5,2" d="M103,-540C103,-540 57,-540 57,-540 51,-540 45,-534 45,-528 45,-528 45,-516 45,-516 45,-510 51,-504 57,-504 57,-504 103,-504 103,-504 109,-504 115,-510 115,-516 115,-516 115,-528 115,-528 115,-534 109,-540 103,-540"/>
<text text-anchor="middle" x="80" y="-519.5" font-family="sans" font-size="10.00">samtoBam</text>
</g>
<!-- 16&#45;&gt;6 -->
<g id="edge16" class="edge">
<title>16&#45;&gt;6</title>
<path fill="none" stroke="grey" stroke-width="2" d="M115.07,-508.97C150.52,-496.8 205.28,-478.01 242.79,-465.14"/>
<polygon fill="grey" stroke="grey" stroke-width="2" points="244.08,-468.4 252.4,-461.84 241.81,-461.78 244.08,-468.4"/>
</g>
<!-- 17 -->
<g id="node18" class="node">
<title>17</title>
<path fill="none" stroke="#d85656" stroke-width="2" stroke-dasharray="5,2" d="M297,-540C297,-540 251,-540 251,-540 245,-540 239,-534 239,-528 239,-528 239,-516 239,-516 239,-510 245,-504 251,-504 251,-504 297,-504 297,-504 303,-504 309,-510 309,-516 309,-516 309,-528 309,-528 309,-534 303,-540 297,-540"/>
<text text-anchor="middle" x="274" y="-519.5" font-family="sans" font-size="10.00">samtoBam</text>
</g>
<!-- 17&#45;&gt;7 -->
<g id="edge17" class="edge">
<title>17&#45;&gt;7</title>
<path fill="none" stroke="grey" stroke-width="2" d="M299.69,-503.88C313.29,-494.81 330.17,-483.55 344.86,-473.76"/>
<polygon fill="grey" stroke="grey" stroke-width="2" points="346.84,-476.65 353.22,-468.19 342.95,-470.82 346.84,-476.65"/>
</g>
<!-- 18 -->
<g id="node19" class="node">
<title>18</title>
<path fill="none" stroke="#d85656" stroke-width="2" stroke-dasharray="5,2" d="M438,-540C438,-540 392,-540 392,-540 386,-540 380,-534 380,-528 380,-528 380,-516 380,-516 380,-510 386,-504 392,-504 392,-504 438,-504 438,-504 444,-504 450,-510 450,-516 450,-516 450,-528 450,-528 450,-534 444,-540 438,-540"/>
<text text-anchor="middle" x="415" y="-519.5" font-family="sans" font-size="10.00">samtoBam</text>
</g>
<!-- 18&#45;&gt;8 -->
<g id="edge18" class="edge">
<title>18&#45;&gt;8</title>
<path fill="none" stroke="grey" stroke-width="2" d="M427.85,-503.7C434.03,-495.39 441.54,-485.28 448.32,-476.14"/>
<polygon fill="grey" stroke="grey" stroke-width="2" points="451.14,-478.22 454.29,-468.1 445.52,-474.04 451.14,-478.22"/>
</g>
<!-- 19 -->
<g id="node20" class="node">
<title>19</title>
<path fill="none" stroke="#d85656" stroke-width="2" stroke-dasharray="5,2" d="M553,-540C553,-540 507,-540 507,-540 501,-540 495,-534 495,-528 495,-528 495,-516 495,-516 495,-510 501,-504 507,-504 507,-504 553,-504 553,-504 559,-504 565,-510 565,-516 565,-516 565,-528 565,-528 565,-534 559,-540 553,-540"/>
<text text-anchor="middle" x="530" y="-519.5" font-family="sans" font-size="10.00">samtoBam</text>
</g>
<!-- 19&#45;&gt;9 -->
<g id="edge19" class="edge">
<title>19&#45;&gt;9</title>
<path fill="none" stroke="grey" stroke-width="2" d="M535.19,-503.7C537.53,-495.9 540.35,-486.51 542.95,-477.83"/>
<polygon fill="grey" stroke="grey" stroke-width="2" points="546.35,-478.69 545.87,-468.1 539.64,-476.68 546.35,-478.69"/>
</g>
<!-- 20 -->
<g id="node21" class="node">
<title>20</title>
<path fill="none" stroke="#d85656" stroke-width="2" stroke-dasharray="5,2" d="M654,-540C654,-540 608,-540 608,-540 602,-540 596,-534 596,-528 596,-528 596,-516 596,-516 596,-510 602,-504 608,-504 608,-504 654,-504 654,-504 660,-504 666,-510 666,-516 666,-516 666,-528 666,-528 666,-534 660,-540 654,-540"/>
<text text-anchor="middle" x="631" y="-519.5" font-family="sans" font-size="10.00">samtoBam</text>
</g>
<!-- 20&#45;&gt;10 -->
<g id="edge20" class="edge">
<title>20&#45;&gt;10</title>
<path fill="none" stroke="grey" stroke-width="2" d="M631.74,-503.7C632.07,-495.98 632.47,-486.71 632.84,-478.11"/>
<polygon fill="grey" stroke="grey" stroke-width="2" points="636.34,-478.25 633.27,-468.1 629.34,-477.95 636.34,-478.25"/>
</g>
<!-- 21 -->
<g id="node22" class="node">
<title>21</title>
<path fill="none" stroke="#d85656" stroke-width="2" stroke-dasharray="5,2" d="M754,-540C754,-540 708,-540 708,-540 702,-540 696,-534 696,-528 696,-528 696,-516 696,-516 696,-510 702,-504 708,-504 708,-504 754,-504 754,-504 760,-504 766,-510 766,-516 766,-516 766,-528 766,-528 766,-534 760,-540 754,-540"/>
<text text-anchor="middle" x="731" y="-519.5" font-family="sans" font-size="10.00">samtoBam</text>
</g>
<!-- 21&#45;&gt;11 -->
<g id="edge21" class="edge">
<title>21&#45;&gt;11</title>
<path fill="none" stroke="grey" stroke-width="2" d="M727.54,-503.7C726,-495.98 724.14,-486.71 722.42,-478.11"/>
<polygon fill="grey" stroke="grey" stroke-width="2" points="725.81,-477.22 720.42,-468.1 718.95,-478.6 725.81,-477.22"/>
</g>
<!-- 22 -->
<g id="node23" class="node">
<title>22</title>
<path fill="none" stroke="#d85656" stroke-width="2" stroke-dasharray="5,2" d="M873,-540C873,-540 827,-540 827,-540 821,-540 815,-534 815,-528 815,-528 815,-516 815,-516 815,-510 821,-504 827,-504 827,-504 873,-504 873,-504 879,-504 885,-510 885,-516 885,-516 885,-528 885,-528 885,-534 879,-540 873,-540"/>
<text text-anchor="middle" x="850" y="-519.5" font-family="sans" font-size="10.00">samtoBam</text>
</g>
<!-- 22&#45;&gt;12 -->
<g id="edge22" class="edge">
<title>22&#45;&gt;12</title>
<path fill="none" stroke="grey" stroke-width="2" d="M838.13,-503.7C832.5,-495.47 825.65,-485.48 819.43,-476.42"/>
<polygon fill="grey" stroke="grey" stroke-width="2" points="822.27,-474.37 813.73,-468.1 816.5,-478.33 822.27,-474.37"/>
</g>
<!-- 23 -->
<g id="node24" class="node">
<title>23</title>
<path fill="none" stroke="#d85656" stroke-width="2" stroke-dasharray="5,2" d="M1002,-540C1002,-540 956,-540 956,-540 950,-540 944,-534 944,-528 944,-528 944,-516 944,-516 944,-510 950,-504 956,-504 956,-504 1002,-504 1002,-504 1008,-504 1014,-510 1014,-516 1014,-516 1014,-528 1014,-528 1014,-534 1008,-540 1002,-540"/>
<text text-anchor="middle" x="979" y="-519.5" font-family="sans" font-size="10.00">samtoBam</text>
</g>
<!-- 23&#45;&gt;13 -->
<g id="edge23" class="edge">
<title>23&#45;&gt;13</title>
<path fill="none" stroke="grey" stroke-width="2" d="M956.75,-503.7C945.42,-494.88 931.47,-484.03 919.18,-474.47"/>
<polygon fill="grey" stroke="grey" stroke-width="2" points="921.03,-471.48 910.99,-468.1 916.74,-477.01 921.03,-471.48"/>
</g>
<!-- 24 -->
<g id="node25" class="node">
<title>24</title>
<path fill="none" stroke="#d85656" stroke-width="2" stroke-dasharray="5,2" d="M1135,-540C1135,-540 1089,-540 1089,-540 1083,-540 1077,-534 1077,-528 1077,-528 1077,-516 1077,-516 1077,-510 1083,-504 1089,-504 1089,-504 1135,-504 1135,-504 1141,-504 1147,-510 1147,-516 1147,-516 1147,-528 1147,-528 1147,-534 1141,-540 1135,-540"/>
<text text-anchor="middle" x="1112" y="-519.5" font-family="sans" font-size="10.00">samtoBam</text>
</g>
<!-- 24&#45;&gt;14 -->
<g id="edge24" class="edge">
<title>24&#45;&gt;14</title>
<path fill="none" stroke="grey" stroke-width="2" d="M1078.73,-503.88C1059.99,-494.23 1036.45,-482.11 1016.63,-471.91"/>
<polygon fill="grey" stroke="grey" stroke-width="2" points="1018.02,-468.69 1007.52,-467.23 1014.81,-474.91 1018.02,-468.69"/>
</g>
<!-- 25 -->
<g id="node26" class="node">
<title>25</title>
<path fill="none" stroke="#d85656" stroke-width="2" stroke-dasharray="5,2" d="M1271,-540C1271,-540 1225,-540 1225,-540 1219,-540 1213,-534 1213,-528 1213,-528 1213,-516 1213,-516 1213,-510 1219,-504 1225,-504 1225,-504 1271,-504 1271,-504 1277,-504 1283,-510 1283,-516 1283,-516 1283,-528 1283,-528 1283,-534 1277,-540 1271,-540"/>
<text text-anchor="middle" x="1248" y="-519.5" font-family="sans" font-size="10.00">samtoBam</text>
</g>
<!-- 25&#45;&gt;15 -->
<g id="edge25" class="edge">
<title>25&#45;&gt;15</title>
<path fill="none" stroke="grey" stroke-width="2" d="M1212.96,-507.67C1182.25,-495.99 1137.58,-478.99 1105.17,-466.66"/>
<polygon fill="grey" stroke="grey" stroke-width="2" points="1106.13,-463.28 1095.54,-463 1103.64,-469.82 1106.13,-463.28"/>
</g>
<!-- 26 -->
<g id="node27" class="node">
<title>26</title>
<path fill="none" stroke="#56d86b" stroke-width="2" stroke-dasharray="5,2" d="M82,-612C82,-612 52,-612 52,-612 46,-612 40,-606 40,-600 40,-600 40,-588 40,-588 40,-582 46,-576 52,-576 52,-576 82,-576 82,-576 88,-576 94,-582 94,-588 94,-588 94,-600 94,-600 94,-606 88,-612 82,-612"/>
<text text-anchor="middle" x="67" y="-591.5" font-family="sans" font-size="10.00">hisat</text>
</g>
<!-- 26&#45;&gt;16 -->
<g id="edge26" class="edge">
<title>26&#45;&gt;16</title>
<path fill="none" stroke="grey" stroke-width="2" d="M70.21,-575.7C71.65,-567.98 73.37,-558.71 74.96,-550.11"/>
<polygon fill="grey" stroke="grey" stroke-width="2" points="78.44,-550.58 76.82,-540.1 71.56,-549.3 78.44,-550.58"/>
</g>
<!-- 27 -->
<g id="node28" class="node">
<title>27</title>
<path fill="none" stroke="#56d86b" stroke-width="2" stroke-dasharray="5,2" d="M240,-612C240,-612 210,-612 210,-612 204,-612 198,-606 198,-600 198,-600 198,-588 198,-588 198,-582 204,-576 210,-576 210,-576 240,-576 240,-576 246,-576 252,-582 252,-588 252,-588 252,-600 252,-600 252,-606 246,-612 240,-612"/>
<text text-anchor="middle" x="225" y="-591.5" font-family="sans" font-size="10.00">hisat</text>
</g>
<!-- 27&#45;&gt;17 -->
<g id="edge27" class="edge">
<title>27&#45;&gt;17</title>
<path fill="none" stroke="grey" stroke-width="2" d="M237.11,-575.7C242.87,-567.47 249.86,-557.48 256.21,-548.42"/>
<polygon fill="grey" stroke="grey" stroke-width="2" points="259.16,-550.3 262.03,-540.1 253.42,-546.29 259.16,-550.3"/>
</g>
<!-- 28 -->
<g id="node29" class="node">
<title>28</title>
<path fill="none" stroke="#56d86b" stroke-width="2" stroke-dasharray="5,2" d="M373,-612C373,-612 343,-612 343,-612 337,-612 331,-606 331,-600 331,-600 331,-588 331,-588 331,-582 337,-576 343,-576 343,-576 373,-576 373,-576 379,-576 385,-582 385,-588 385,-588 385,-600 385,-600 385,-606 379,-612 373,-612"/>
<text text-anchor="middle" x="358" y="-591.5" font-family="sans" font-size="10.00">hisat</text>
</g>
<!-- 28&#45;&gt;18 -->
<g id="edge28" class="edge">
<title>28&#45;&gt;18</title>
<path fill="none" stroke="grey" stroke-width="2" d="M372.09,-575.7C378.92,-567.3 387.26,-557.07 394.76,-547.86"/>
<polygon fill="grey" stroke="grey" stroke-width="2" points="397.47,-550.07 401.07,-540.1 392.04,-545.65 397.47,-550.07"/>
</g>
<!-- 29 -->
<g id="node30" class="node">
<title>29</title>
<path fill="none" stroke="#56d86b" stroke-width="2" stroke-dasharray="5,2" d="M508,-612C508,-612 478,-612 478,-612 472,-612 466,-606 466,-600 466,-600 466,-588 466,-588 466,-582 472,-576 478,-576 478,-576 508,-576 508,-576 514,-576 520,-582 520,-588 520,-588 520,-600 520,-600 520,-606 514,-612 508,-612"/>
<text text-anchor="middle" x="493" y="-591.5" font-family="sans" font-size="10.00">hisat</text>
</g>
<!-- 29&#45;&gt;19 -->
<g id="edge29" class="edge">
<title>29&#45;&gt;19</title>
<path fill="none" stroke="grey" stroke-width="2" d="M502.15,-575.7C506.4,-567.64 511.56,-557.89 516.27,-548.98"/>
<polygon fill="grey" stroke="grey" stroke-width="2" points="519.38,-550.58 520.96,-540.1 513.19,-547.31 519.38,-550.58"/>
</g>
<!-- 30 -->
<g id="node31" class="node">
<title>30</title>
<path fill="none" stroke="#56d86b" stroke-width="2" stroke-dasharray="5,2" d="M621,-612C621,-612 591,-612 591,-612 585,-612 579,-606 579,-600 579,-600 579,-588 579,-588 579,-582 585,-576 591,-576 591,-576 621,-576 621,-576 627,-576 633,-582 633,-588 633,-588 633,-600 633,-600 633,-606 627,-612 621,-612"/>
<text text-anchor="middle" x="606" y="-591.5" font-family="sans" font-size="10.00">hisat</text>
</g>
<!-- 30&#45;&gt;20 -->
<g id="edge30" class="edge">
<title>30&#45;&gt;20</title>
<path fill="none" stroke="grey" stroke-width="2" d="M612.18,-575.7C615,-567.81 618.39,-558.3 621.52,-549.55"/>
<polygon fill="grey" stroke="grey" stroke-width="2" points="624.82,-550.7 624.89,-540.1 618.23,-548.34 624.82,-550.7"/>
</g>
<!-- 31 -->
<g id="node32" class="node">
<title>31</title>
<path fill="none" stroke="#56d86b" stroke-width="2" stroke-dasharray="5,2" d="M749,-612C749,-612 719,-612 719,-612 713,-612 707,-606 707,-600 707,-600 707,-588 707,-588 707,-582 713,-576 719,-576 719,-576 749,-576 749,-576 755,-576 761,-582 761,-588 761,-588 761,-600 761,-600 761,-606 755,-612 749,-612"/>
<text text-anchor="middle" x="734" y="-591.5" font-family="sans" font-size="10.00">hisat</text>
</g>
<!-- 31&#45;&gt;21 -->
<g id="edge31" class="edge">
<title>31&#45;&gt;21</title>
<path fill="none" stroke="grey" stroke-width="2" d="M733.26,-575.7C732.93,-567.98 732.53,-558.71 732.16,-550.11"/>
<polygon fill="grey" stroke="grey" stroke-width="2" points="735.66,-549.95 731.73,-540.1 728.66,-550.25 735.66,-549.95"/>
</g>
<!-- 32 -->
<g id="node33" class="node">
<title>32</title>
<path fill="none" stroke="#56d86b" stroke-width="2" stroke-dasharray="5,2" d="M878,-612C878,-612 848,-612 848,-612 842,-612 836,-606 836,-600 836,-600 836,-588 836,-588 836,-582 842,-576 848,-576 848,-576 878,-576 878,-576 884,-576 890,-582 890,-588 890,-588 890,-600 890,-600 890,-606 884,-612 878,-612"/>
<text text-anchor="middle" x="863" y="-591.5" font-family="sans" font-size="10.00">hisat</text>
</g>
<!-- 32&#45;&gt;22 -->
<g id="edge32" class="edge">
<title>32&#45;&gt;22</title>
<path fill="none" stroke="grey" stroke-width="2" d="M859.79,-575.7C858.35,-567.98 856.63,-558.71 855.04,-550.11"/>
<polygon fill="grey" stroke="grey" stroke-width="2" points="858.44,-549.3 853.18,-540.1 851.56,-550.58 858.44,-549.3"/>
</g>
<!-- 33 -->
<g id="node34" class="node">
<title>33</title>
<path fill="none" stroke="#56d86b" stroke-width="2" stroke-dasharray="5,2" d="M1011,-612C1011,-612 981,-612 981,-612 975,-612 969,-606 969,-600 969,-600 969,-588 969,-588 969,-582 975,-576 981,-576 981,-576 1011,-576 1011,-576 1017,-576 1023,-582 1023,-588 1023,-588 1023,-600 1023,-600 1023,-606 1017,-612 1011,-612"/>
<text text-anchor="middle" x="996" y="-591.5" font-family="sans" font-size="10.00">hisat</text>
</g>
<!-- 33&#45;&gt;23 -->
<g id="edge33" class="edge">
<title>33&#45;&gt;23</title>
<path fill="none" stroke="grey" stroke-width="2" d="M991.8,-575.7C989.9,-567.9 987.62,-558.51 985.52,-549.83"/>
<polygon fill="grey" stroke="grey" stroke-width="2" points="988.92,-549 983.15,-540.1 982.11,-550.65 988.92,-549"/>
</g>
<!-- 34 -->
<g id="node35" class="node">
<title>34</title>
<path fill="none" stroke="#56d86b" stroke-width="2" stroke-dasharray="5,2" d="M1147,-612C1147,-612 1117,-612 1117,-612 1111,-612 1105,-606 1105,-600 1105,-600 1105,-588 1105,-588 1105,-582 1111,-576 1117,-576 1117,-576 1147,-576 1147,-576 1153,-576 1159,-582 1159,-588 1159,-588 1159,-600 1159,-600 1159,-606 1153,-612 1147,-612"/>
<text text-anchor="middle" x="1132" y="-591.5" font-family="sans" font-size="10.00">hisat</text>
</g>
<!-- 34&#45;&gt;24 -->
<g id="edge34" class="edge">
<title>34&#45;&gt;24</title>
<path fill="none" stroke="grey" stroke-width="2" d="M1127.06,-575.7C1124.83,-567.9 1122.15,-558.51 1119.67,-549.83"/>
<polygon fill="grey" stroke="grey" stroke-width="2" points="1123,-548.76 1116.89,-540.1 1116.27,-550.68 1123,-548.76"/>
</g>
<!-- 35 -->
<g id="node36" class="node">
<title>35</title>
<path fill="none" stroke="#56d86b" stroke-width="2" stroke-dasharray="5,2" d="M1284,-612C1284,-612 1254,-612 1254,-612 1248,-612 1242,-606 1242,-600 1242,-600 1242,-588 1242,-588 1242,-582 1248,-576 1254,-576 1254,-576 1284,-576 1284,-576 1290,-576 1296,-582 1296,-588 1296,-588 1296,-600 1296,-600 1296,-606 1290,-612 1284,-612"/>
<text text-anchor="middle" x="1269" y="-591.5" font-family="sans" font-size="10.00">hisat</text>
</g>
<!-- 35&#45;&gt;25 -->
<g id="edge35" class="edge">
<title>35&#45;&gt;25</title>
<path fill="none" stroke="grey" stroke-width="2" d="M1263.81,-575.7C1261.47,-567.9 1258.65,-558.51 1256.05,-549.83"/>
<polygon fill="grey" stroke="grey" stroke-width="2" points="1259.36,-548.68 1253.13,-540.1 1252.65,-550.69 1259.36,-548.68"/>
</g>
<!-- 36 -->
<g id="node37" class="node">
<title>36</title>
<path fill="none" stroke="#d88556" stroke-width="2" stroke-dasharray="5,2" d="M108,-689C108,-689 12,-689 12,-689 6,-689 0,-683 0,-677 0,-677 0,-660 0,-660 0,-654 6,-648 12,-648 12,-648 108,-648 108,-648 114,-648 120,-654 120,-660 120,-660 120,-677 120,-677 120,-683 114,-689 108,-689"/>
<text text-anchor="middle" x="60" y="-677" font-family="sans" font-size="10.00">download</text>
<text text-anchor="middle" x="60" y="-666" font-family="sans" font-size="10.00">sample: SRR1573523</text>
<text text-anchor="middle" x="60" y="-655" font-family="sans" font-size="10.00">wd: maize_out</text>
</g>
<!-- 36&#45;&gt;26 -->
<g id="edge36" class="edge">
<title>36&#45;&gt;26</title>
<path fill="none" stroke="grey" stroke-width="2" d="M61.91,-647.69C62.66,-639.91 63.54,-630.84 64.35,-622.45"/>
<polygon fill="grey" stroke="grey" stroke-width="2" points="67.85,-622.61 65.33,-612.32 60.88,-621.94 67.85,-622.61"/>
</g>
<!-- 37 -->
<g id="node38" class="node">
<title>37</title>
<path fill="none" stroke="#d88556" stroke-width="2" stroke-dasharray="5,2" d="M240,-689C240,-689 150,-689 150,-689 144,-689 138,-683 138,-677 138,-677 138,-660 138,-660 138,-654 144,-648 150,-648 150,-648 240,-648 240,-648 246,-648 252,-654 252,-660 252,-660 252,-677 252,-677 252,-683 246,-689 240,-689"/>
<text text-anchor="middle" x="195" y="-677" font-family="sans" font-size="10.00">download</text>
<text text-anchor="middle" x="195" y="-666" font-family="sans" font-size="10.00">sample: SRR999058</text>
<text text-anchor="middle" x="195" y="-655" font-family="sans" font-size="10.00">wd: maize_out</text>
</g>
<!-- 37&#45;&gt;27 -->
<g id="edge37" class="edge">
<title>37&#45;&gt;27</title>
<path fill="none" stroke="grey" stroke-width="2" d="M203.2,-647.69C206.53,-639.65 210.42,-630.24 213.99,-621.61"/>
<polygon fill="grey" stroke="grey" stroke-width="2" points="217.24,-622.9 217.83,-612.32 210.78,-620.22 217.24,-622.9"/>
</g>
<!-- 38 -->
<g id="node39" class="node">
<title>38</title>
<path fill="none" stroke="#d88556" stroke-width="2" stroke-dasharray="5,2" d="M372,-689C372,-689 282,-689 282,-689 276,-689 270,-683 270,-677 270,-677 270,-660 270,-660 270,-654 276,-648 282,-648 282,-648 372,-648 372,-648 378,-648 384,-654 384,-660 384,-660 384,-677 384,-677 384,-683 378,-689 372,-689"/>
<text text-anchor="middle" x="327" y="-677" font-family="sans" font-size="10.00">download</text>
<text text-anchor="middle" x="327" y="-666" font-family="sans" font-size="10.00">sample: SRR520999</text>
<text text-anchor="middle" x="327" y="-655" font-family="sans" font-size="10.00">wd: maize_out</text>
</g>
<!-- 38&#45;&gt;28 -->
<g id="edge38" class="edge">
<title>38&#45;&gt;28</title>
<path fill="none" stroke="grey" stroke-width="2" d="M335.47,-647.69C338.91,-639.65 342.93,-630.24 346.62,-621.61"/>
<polygon fill="grey" stroke="grey" stroke-width="2" points="349.88,-622.89 350.59,-612.32 343.44,-620.14 349.88,-622.89"/>
</g>
<!-- 39 -->
<g id="node40" class="node">
<title>39</title>
<path fill="none" stroke="#d88556" stroke-width="2" stroke-dasharray="5,2" d="M510,-689C510,-689 414,-689 414,-689 408,-689 402,-683 402,-677 402,-677 402,-660 402,-660 402,-654 408,-648 414,-648 414,-648 510,-648 510,-648 516,-648 522,-654 522,-660 522,-660 522,-677 522,-677 522,-683 516,-689 510,-689"/>
<text text-anchor="middle" x="462" y="-677" font-family="sans" font-size="10.00">download</text>
<text text-anchor="middle" x="462" y="-666" font-family="sans" font-size="10.00">sample: SRR1168424</text>
<text text-anchor="middle" x="462" y="-655" font-family="sans" font-size="10.00">wd: maize_out</text>
</g>
<!-- 39&#45;&gt;29 -->
<g id="edge39" class="edge">
<title>39&#45;&gt;29</title>
<path fill="none" stroke="grey" stroke-width="2" d="M470.47,-647.69C473.91,-639.65 477.93,-630.24 481.62,-621.61"/>
<polygon fill="grey" stroke="grey" stroke-width="2" points="484.88,-622.89 485.59,-612.32 478.44,-620.14 484.88,-622.89"/>
</g>
<!-- 40 -->
<g id="node41" class="node">
<title>40</title>
<path fill="none" stroke="#d88556" stroke-width="2" stroke-dasharray="5,2" d="M648,-689C648,-689 552,-689 552,-689 546,-689 540,-683 540,-677 540,-677 540,-660 540,-660 540,-654 546,-648 552,-648 552,-648 648,-648 648,-648 654,-648 660,-654 660,-660 660,-660 660,-677 660,-677 660,-683 654,-689 648,-689"/>
<text text-anchor="middle" x="600" y="-677" font-family="sans" font-size="10.00">download</text>
<text text-anchor="middle" x="600" y="-666" font-family="sans" font-size="10.00">sample: SRR1621015</text>
<text text-anchor="middle" x="600" y="-655" font-family="sans" font-size="10.00">wd: maize_out</text>
</g>
<!-- 40&#45;&gt;30 -->
<g id="edge40" class="edge">
<title>40&#45;&gt;30</title>
<path fill="none" stroke="grey" stroke-width="2" d="M601.64,-647.69C602.28,-639.91 603.03,-630.84 603.73,-622.45"/>
<polygon fill="grey" stroke="grey" stroke-width="2" points="607.23,-622.57 604.57,-612.32 600.25,-622 607.23,-622.57"/>
</g>
<!-- 41 -->
<g id="node42" class="node">
<title>41</title>
<path fill="none" stroke="#d88556" stroke-width="2" stroke-dasharray="5,2" d="M786,-689C786,-689 690,-689 690,-689 684,-689 678,-683 678,-677 678,-677 678,-660 678,-660 678,-654 684,-648 690,-648 690,-648 786,-648 786,-648 792,-648 798,-654 798,-660 798,-660 798,-677 798,-677 798,-683 792,-689 786,-689"/>
<text text-anchor="middle" x="738" y="-677" font-family="sans" font-size="10.00">download</text>
<text text-anchor="middle" x="738" y="-666" font-family="sans" font-size="10.00">sample: SRR3084882</text>
<text text-anchor="middle" x="738" y="-655" font-family="sans" font-size="10.00">wd: maize_out</text>
</g>
<!-- 41&#45;&gt;31 -->
<g id="edge41" class="edge">
<title>41&#45;&gt;31</title>
<path fill="none" stroke="grey" stroke-width="2" d="M736.91,-647.69C736.48,-639.91 735.98,-630.84 735.51,-622.45"/>
<polygon fill="grey" stroke="grey" stroke-width="2" points="739,-622.11 734.96,-612.32 732.01,-622.5 739,-622.11"/>
</g>
<!-- 42 -->
<g id="node43" class="node">
<title>42</title>
<path fill="none" stroke="#d88556" stroke-width="2" stroke-dasharray="5,2" d="M924,-689C924,-689 828,-689 828,-689 822,-689 816,-683 816,-677 816,-677 816,-660 816,-660 816,-654 822,-648 828,-648 828,-648 924,-648 924,-648 930,-648 936,-654 936,-660 936,-660 936,-677 936,-677 936,-683 930,-689 924,-689"/>
<text text-anchor="middle" x="876" y="-677" font-family="sans" font-size="10.00">download</text>
<text text-anchor="middle" x="876" y="-666" font-family="sans" font-size="10.00">sample: SRR1620828</text>
<text text-anchor="middle" x="876" y="-655" font-family="sans" font-size="10.00">wd: maize_out</text>
</g>
<!-- 42&#45;&gt;32 -->
<g id="edge42" class="edge">
<title>42&#45;&gt;32</title>
<path fill="none" stroke="grey" stroke-width="2" d="M872.45,-647.69C871.04,-639.82 869.39,-630.64 867.87,-622.17"/>
<polygon fill="grey" stroke="grey" stroke-width="2" points="871.32,-621.54 866.11,-612.32 864.43,-622.78 871.32,-621.54"/>
</g>
<!-- 43 -->
<g id="node44" class="node">
<title>43</title>
<path fill="none" stroke="#d88556" stroke-width="2" stroke-dasharray="5,2" d="M1062,-689C1062,-689 966,-689 966,-689 960,-689 954,-683 954,-677 954,-677 954,-660 954,-660 954,-654 960,-648 966,-648 966,-648 1062,-648 1062,-648 1068,-648 1074,-654 1074,-660 1074,-660 1074,-677 1074,-677 1074,-683 1068,-689 1062,-689"/>
<text text-anchor="middle" x="1014" y="-677" font-family="sans" font-size="10.00">download</text>
<text text-anchor="middle" x="1014" y="-666" font-family="sans" font-size="10.00">sample: SRR3053545</text>
<text text-anchor="middle" x="1014" y="-655" font-family="sans" font-size="10.00">wd: maize_out</text>
</g>
<!-- 43&#45;&gt;33 -->
<g id="edge43" class="edge">
<title>43&#45;&gt;33</title>
<path fill="none" stroke="grey" stroke-width="2" d="M1009.08,-647.69C1007.13,-639.82 1004.85,-630.64 1002.75,-622.17"/>
<polygon fill="grey" stroke="grey" stroke-width="2" points="1006.11,-621.18 1000.3,-612.32 999.31,-622.87 1006.11,-621.18"/>
</g>
<!-- 44 -->
<g id="node45" class="node">
<title>44</title>
<path fill="none" stroke="#d88556" stroke-width="2" stroke-dasharray="5,2" d="M1200,-689C1200,-689 1104,-689 1104,-689 1098,-689 1092,-683 1092,-677 1092,-677 1092,-660 1092,-660 1092,-654 1098,-648 1104,-648 1104,-648 1200,-648 1200,-648 1206,-648 1212,-654 1212,-660 1212,-660 1212,-677 1212,-677 1212,-683 1206,-689 1200,-689"/>
<text text-anchor="middle" x="1152" y="-677" font-family="sans" font-size="10.00">download</text>
<text text-anchor="middle" x="1152" y="-666" font-family="sans" font-size="10.00">sample: SRR1620949</text>
<text text-anchor="middle" x="1152" y="-655" font-family="sans" font-size="10.00">wd: maize_out</text>
</g>
<!-- 44&#45;&gt;34 -->
<g id="edge44" class="edge">
<title>44&#45;&gt;34</title>
<path fill="none" stroke="grey" stroke-width="2" d="M1146.53,-647.69C1144.36,-639.82 1141.83,-630.64 1139.49,-622.17"/>
<polygon fill="grey" stroke="grey" stroke-width="2" points="1142.81,-621.03 1136.78,-612.32 1136.06,-622.89 1142.81,-621.03"/>
</g>
<!-- 45 -->
<g id="node46" class="node">
<title>45</title>
<path fill="none" stroke="#d88556" stroke-width="2" stroke-dasharray="5,2" d="M1338,-689C1338,-689 1242,-689 1242,-689 1236,-689 1230,-683 1230,-677 1230,-677 1230,-660 1230,-660 1230,-654 1236,-648 1242,-648 1242,-648 1338,-648 1338,-648 1344,-648 1350,-654 1350,-660 1350,-660 1350,-677 1350,-677 1350,-683 1344,-689 1338,-689"/>
<text text-anchor="middle" x="1290" y="-677" font-family="sans" font-size="10.00">download</text>
<text text-anchor="middle" x="1290" y="-666" font-family="sans" font-size="10.00">sample: SRR1620947</text>
<text text-anchor="middle" x="1290" y="-655" font-family="sans" font-size="10.00">wd: maize_out</text>
</g>
<!-- 45&#45;&gt;35 -->
<g id="edge45" class="edge">
<title>45&#45;&gt;35</title>
<path fill="none" stroke="grey" stroke-width="2" d="M1284.26,-647.69C1281.98,-639.82 1279.32,-630.64 1276.87,-622.17"/>
<polygon fill="grey" stroke="grey" stroke-width="2" points="1280.16,-620.95 1274.02,-612.32 1273.44,-622.9 1280.16,-620.95"/>
</g>
</g>
</svg>
